<svg xmlns="http://www.w3.org/2000/svg" xmlns:xlink="http://www.w3.org/1999/xlink" width="1366" zoomAndPan="magnify" viewBox="0 0 1024.5 576" height="768" preserveAspectRatio="xMidYMid meet" version="1.0"><defs><filter x="0%" y="0%" width="100%" height="100%" id="5c3a09021a"><feColorMatrix values="0 0 0 0 1 0 0 0 0 1 0 0 0 0 1 0 0 0 1 0" color-interpolation-filters="sRGB"/></filter><g/><clipPath id="b7a548d657"><path d="M 0 0.140625 L 1024 0.140625 L 1024 575.859375 L 0 575.859375 Z M 0 0.140625 " clip-rule="nonzero"/></clipPath><clipPath id="681d3d7d66"><path d="M 57.570312 156.441406 L 210.429688 156.441406 L 210.429688 214.414062 L 57.570312 214.414062 Z M 57.570312 156.441406 " clip-rule="nonzero"/></clipPath><clipPath id="a4725c9d7f"><path d="M 62.820312 156.441406 L 205.003906 156.441406 C 207.902344 156.441406 210.253906 158.792969 210.253906 161.691406 L 210.253906 209.167969 C 210.253906 212.066406 207.902344 214.414062 205.003906 214.414062 L 62.820312 214.414062 C 59.921875 214.414062 57.570312 212.066406 57.570312 209.167969 L 57.570312 161.691406 C 57.570312 158.792969 59.921875 156.441406 62.820312 156.441406 Z M 62.820312 156.441406 " clip-rule="nonzero"/></clipPath><clipPath id="903f44a6da"><path d="M 57.242188 257.894531 L 210 257.894531 L 210 315.867188 L 57.242188 315.867188 Z M 57.242188 257.894531 " clip-rule="nonzero"/></clipPath><clipPath id="102dd78c79"><path d="M 62.492188 257.894531 L 204.675781 257.894531 C 207.574219 257.894531 209.925781 260.242188 209.925781 263.140625 L 209.925781 310.617188 C 209.925781 313.515625 207.574219 315.867188 204.675781 315.867188 L 62.492188 315.867188 C 59.59375 315.867188 57.242188 313.515625 57.242188 310.617188 L 57.242188 263.140625 C 57.242188 260.242188 59.59375 257.894531 62.492188 257.894531 Z M 62.492188 257.894531 " clip-rule="nonzero"/></clipPath><clipPath id="b5ff41ea6e"><path d="M 561.496094 259.015625 L 714.351562 259.015625 L 714.351562 316.984375 L 561.496094 316.984375 Z M 561.496094 259.015625 " clip-rule="nonzero"/></clipPath><clipPath id="b05d241578"><path d="M 566.742188 259.015625 L 708.929688 259.015625 C 711.828125 259.015625 714.175781 261.363281 714.175781 264.261719 L 714.175781 311.738281 C 714.175781 314.636719 711.828125 316.984375 708.929688 316.984375 L 566.742188 316.984375 C 563.84375 316.984375 561.496094 314.636719 561.496094 311.738281 L 561.496094 264.261719 C 561.496094 261.363281 563.84375 259.015625 566.742188 259.015625 Z M 566.742188 259.015625 " clip-rule="nonzero"/></clipPath><clipPath id="462081d5f6"><path d="M 309.242188 156.441406 L 462 156.441406 L 462 214.414062 L 309.242188 214.414062 Z M 309.242188 156.441406 " clip-rule="nonzero"/></clipPath><clipPath id="84a97b9217"><path d="M 314.492188 156.441406 L 456.675781 156.441406 C 459.574219 156.441406 461.921875 158.792969 461.921875 161.691406 L 461.921875 209.167969 C 461.921875 212.066406 459.574219 214.414062 456.675781 214.414062 L 314.492188 214.414062 C 311.59375 214.414062 309.242188 212.066406 309.242188 209.167969 L 309.242188 161.691406 C 309.242188 158.792969 311.59375 156.441406 314.492188 156.441406 Z M 314.492188 156.441406 " clip-rule="nonzero"/></clipPath><clipPath id="e6c42c69ec"><path d="M 813.75 460.316406 L 966.605469 460.316406 L 966.605469 518.289062 L 813.75 518.289062 Z M 813.75 460.316406 " clip-rule="nonzero"/></clipPath><clipPath id="b44332deff"><path d="M 818.996094 460.316406 L 961.179688 460.316406 C 964.078125 460.316406 966.429688 462.664062 966.429688 465.5625 L 966.429688 513.039062 C 966.429688 515.9375 964.078125 518.289062 961.179688 518.289062 L 818.996094 518.289062 C 816.097656 518.289062 813.75 515.9375 813.75 513.039062 L 813.75 465.5625 C 813.75 462.664062 816.097656 460.316406 818.996094 460.316406 Z M 818.996094 460.316406 " clip-rule="nonzero"/></clipPath><clipPath id="f8d11d0890"><path d="M 813.75 156.441406 L 966.605469 156.441406 L 966.605469 214.414062 L 813.75 214.414062 Z M 813.75 156.441406 " clip-rule="nonzero"/></clipPath><clipPath id="a0a305dca2"><path d="M 818.996094 156.441406 L 961.179688 156.441406 C 964.078125 156.441406 966.429688 158.792969 966.429688 161.691406 L 966.429688 209.167969 C 966.429688 212.066406 964.078125 214.414062 961.179688 214.414062 L 818.996094 214.414062 C 816.097656 214.414062 813.75 212.066406 813.75 209.167969 L 813.75 161.691406 C 813.75 158.792969 816.097656 156.441406 818.996094 156.441406 Z M 818.996094 156.441406 " clip-rule="nonzero"/></clipPath><clipPath id="2dd6ea4af5"><path d="M 560.875 156.441406 L 713.734375 156.441406 L 713.734375 214.414062 L 560.875 214.414062 Z M 560.875 156.441406 " clip-rule="nonzero"/></clipPath><clipPath id="30001bd963"><path d="M 566.121094 156.441406 L 708.308594 156.441406 C 711.207031 156.441406 713.554688 158.792969 713.554688 161.691406 L 713.554688 209.167969 C 713.554688 212.066406 711.207031 214.414062 708.308594 214.414062 L 566.121094 214.414062 C 563.226562 214.414062 560.875 212.066406 560.875 209.167969 L 560.875 161.691406 C 560.875 158.792969 563.226562 156.441406 566.121094 156.441406 Z M 566.121094 156.441406 " clip-rule="nonzero"/></clipPath><clipPath id="682c394c7e"><path d="M 309.371094 257.191406 L 462 257.191406 L 462 315.164062 L 309.371094 315.164062 Z M 309.371094 257.191406 " clip-rule="nonzero"/></clipPath><clipPath id="3b8de47de7"><path d="M 314.617188 257.191406 L 456.800781 257.191406 C 459.699219 257.191406 462.050781 259.539062 462.050781 262.4375 L 462.050781 309.917969 C 462.050781 312.816406 459.699219 315.164062 456.800781 315.164062 L 314.617188 315.164062 C 311.71875 315.164062 309.371094 312.816406 309.371094 309.917969 L 309.371094 262.4375 C 309.371094 259.539062 311.71875 257.191406 314.617188 257.191406 Z M 314.617188 257.191406 " clip-rule="nonzero"/></clipPath><clipPath id="b9f1181119"><path d="M 813.75 257.894531 L 966.605469 257.894531 L 966.605469 315.867188 L 813.75 315.867188 Z M 813.75 257.894531 " clip-rule="nonzero"/></clipPath><clipPath id="01a46fb593"><path d="M 818.996094 257.894531 L 961.179688 257.894531 C 964.078125 257.894531 966.429688 260.242188 966.429688 263.140625 L 966.429688 310.617188 C 966.429688 313.515625 964.078125 315.867188 961.179688 315.867188 L 818.996094 315.867188 C 816.097656 315.867188 813.75 313.515625 813.75 310.617188 L 813.75 263.140625 C 813.75 260.242188 816.097656 257.894531 818.996094 257.894531 Z M 818.996094 257.894531 " clip-rule="nonzero"/></clipPath><clipPath id="25326d0a1f"><path d="M 0 0.140625 L 1024 0.140625 L 1024 109 L 0 109 Z M 0 0.140625 " clip-rule="nonzero"/></clipPath><mask id="ef8f41339e"><g filter="url(#5c3a09021a)"><rect x="-102.45" width="1229.4" fill="#000000" y="-57.6" height="691.2" fill-opacity="0.5"/></g></mask><clipPath id="e5a6af39d8"><path d="M 0 0.140625 L 1024 0.140625 L 1024 108.265625 L 0 108.265625 Z M 0 0.140625 " clip-rule="nonzero"/></clipPath><clipPath id="1d0acb8bfa"><rect x="0" width="1024" y="0" height="109"/></clipPath><clipPath id="a64afdd640"><path d="M 57.570312 14.359375 L 132.535156 14.359375 L 132.535156 89.324219 L 57.570312 89.324219 Z M 57.570312 14.359375 " clip-rule="nonzero"/></clipPath><clipPath id="3981d9fe45"><path d="M 57.570312 52.015625 C 57.570312 62 61.539062 71.578125 68.601562 78.640625 C 75.664062 85.703125 85.238281 89.667969 95.226562 89.667969 C 105.214844 89.667969 114.792969 85.703125 121.851562 78.640625 C 128.914062 71.578125 132.882812 62 132.882812 52.015625 C 132.882812 42.027344 128.914062 32.449219 121.851562 25.386719 C 114.792969 18.328125 105.214844 14.359375 95.226562 14.359375 C 85.238281 14.359375 75.664062 18.328125 68.601562 25.386719 C 61.539062 32.449219 57.570312 42.027344 57.570312 52.015625 Z M 57.570312 52.015625 " clip-rule="nonzero"/></clipPath><clipPath id="7aa7f786df"><path d="M 67 27 L 107 27 L 107 62 L 67 62 Z M 67 27 " clip-rule="nonzero"/></clipPath><clipPath id="8fcb835bc9"><path d="M 57.570312 52.015625 C 57.570312 62 61.539062 71.578125 68.601562 78.640625 C 75.664062 85.703125 85.238281 89.667969 95.226562 89.667969 C 105.214844 89.667969 114.792969 85.703125 121.851562 78.640625 C 128.914062 71.578125 132.882812 62 132.882812 52.015625 C 132.882812 42.027344 128.914062 32.449219 121.851562 25.386719 C 114.792969 18.328125 105.214844 14.359375 95.226562 14.359375 C 85.238281 14.359375 75.664062 18.328125 68.601562 25.386719 C 61.539062 32.449219 57.570312 42.027344 57.570312 52.015625 Z M 57.570312 52.015625 " clip-rule="nonzero"/></clipPath><clipPath id="bd454353f7"><path d="M 108 52 L 125 52 L 125 62 L 108 62 Z M 108 52 " clip-rule="nonzero"/></clipPath><clipPath id="9f906dd5c7"><path d="M 57.570312 52.015625 C 57.570312 62 61.539062 71.578125 68.601562 78.640625 C 75.664062 85.703125 85.238281 89.667969 95.226562 89.667969 C 105.214844 89.667969 114.792969 85.703125 121.851562 78.640625 C 128.914062 71.578125 132.882812 62 132.882812 52.015625 C 132.882812 42.027344 128.914062 32.449219 121.851562 25.386719 C 114.792969 18.328125 105.214844 14.359375 95.226562 14.359375 C 85.238281 14.359375 75.664062 18.328125 68.601562 25.386719 C 61.539062 32.449219 57.570312 42.027344 57.570312 52.015625 Z M 57.570312 52.015625 " clip-rule="nonzero"/></clipPath><clipPath id="32768468a2"><path d="M 105 32 L 128 32 L 128 54 L 105 54 Z M 105 32 " clip-rule="nonzero"/></clipPath><clipPath id="d84c40e2a2"><path d="M 57.570312 52.015625 C 57.570312 62 61.539062 71.578125 68.601562 78.640625 C 75.664062 85.703125 85.238281 89.667969 95.226562 89.667969 C 105.214844 89.667969 114.792969 85.703125 121.851562 78.640625 C 128.914062 71.578125 132.882812 62 132.882812 52.015625 C 132.882812 42.027344 128.914062 32.449219 121.851562 25.386719 C 114.792969 18.328125 105.214844 14.359375 95.226562 14.359375 C 85.238281 14.359375 75.664062 18.328125 68.601562 25.386719 C 61.539062 32.449219 57.570312 42.027344 57.570312 52.015625 Z M 57.570312 52.015625 " clip-rule="nonzero"/></clipPath><clipPath id="ff3ceba900"><path d="M 82 34 L 92 34 L 92 44 L 82 44 Z M 82 34 " clip-rule="nonzero"/></clipPath><clipPath id="7fd70253bf"><path d="M 57.570312 52.015625 C 57.570312 62 61.539062 71.578125 68.601562 78.640625 C 75.664062 85.703125 85.238281 89.667969 95.226562 89.667969 C 105.214844 89.667969 114.792969 85.703125 121.851562 78.640625 C 128.914062 71.578125 132.882812 62 132.882812 52.015625 C 132.882812 42.027344 128.914062 32.449219 121.851562 25.386719 C 114.792969 18.328125 105.214844 14.359375 95.226562 14.359375 C 85.238281 14.359375 75.664062 18.328125 68.601562 25.386719 C 61.539062 32.449219 57.570312 42.027344 57.570312 52.015625 Z M 57.570312 52.015625 " clip-rule="nonzero"/></clipPath><clipPath id="dda60701f1"><path d="M 95 47 L 103 47 L 103 52 L 95 52 Z M 95 47 " clip-rule="nonzero"/></clipPath><clipPath id="cee489d56d"><path d="M 57.570312 52.015625 C 57.570312 62 61.539062 71.578125 68.601562 78.640625 C 75.664062 85.703125 85.238281 89.667969 95.226562 89.667969 C 105.214844 89.667969 114.792969 85.703125 121.851562 78.640625 C 128.914062 71.578125 132.882812 62 132.882812 52.015625 C 132.882812 42.027344 128.914062 32.449219 121.851562 25.386719 C 114.792969 18.328125 105.214844 14.359375 95.226562 14.359375 C 85.238281 14.359375 75.664062 18.328125 68.601562 25.386719 C 61.539062 32.449219 57.570312 42.027344 57.570312 52.015625 Z M 57.570312 52.015625 " clip-rule="nonzero"/></clipPath><clipPath id="a22ae1c017"><path d="M 90 32 L 96 32 L 96 39 L 90 39 Z M 90 32 " clip-rule="nonzero"/></clipPath><clipPath id="7b388f902b"><path d="M 57.570312 52.015625 C 57.570312 62 61.539062 71.578125 68.601562 78.640625 C 75.664062 85.703125 85.238281 89.667969 95.226562 89.667969 C 105.214844 89.667969 114.792969 85.703125 121.851562 78.640625 C 128.914062 71.578125 132.882812 62 132.882812 52.015625 C 132.882812 42.027344 128.914062 32.449219 121.851562 25.386719 C 114.792969 18.328125 105.214844 14.359375 95.226562 14.359375 C 85.238281 14.359375 75.664062 18.328125 68.601562 25.386719 C 61.539062 32.449219 57.570312 42.027344 57.570312 52.015625 Z M 57.570312 52.015625 " clip-rule="nonzero"/></clipPath><clipPath id="fb43984d93"><path d="M 77 32 L 83 32 L 83 39 L 77 39 Z M 77 32 " clip-rule="nonzero"/></clipPath><clipPath id="6abe9a2d2c"><path d="M 57.570312 52.015625 C 57.570312 62 61.539062 71.578125 68.601562 78.640625 C 75.664062 85.703125 85.238281 89.667969 95.226562 89.667969 C 105.214844 89.667969 114.792969 85.703125 121.851562 78.640625 C 128.914062 71.578125 132.882812 62 132.882812 52.015625 C 132.882812 42.027344 128.914062 32.449219 121.851562 25.386719 C 114.792969 18.328125 105.214844 14.359375 95.226562 14.359375 C 85.238281 14.359375 75.664062 18.328125 68.601562 25.386719 C 61.539062 32.449219 57.570312 42.027344 57.570312 52.015625 Z M 57.570312 52.015625 " clip-rule="nonzero"/></clipPath><clipPath id="8d6aebeeae"><path d="M 83 28 L 90 28 L 90 34 L 83 34 Z M 83 28 " clip-rule="nonzero"/></clipPath><clipPath id="10eb1b7e71"><path d="M 57.570312 52.015625 C 57.570312 62 61.539062 71.578125 68.601562 78.640625 C 75.664062 85.703125 85.238281 89.667969 95.226562 89.667969 C 105.214844 89.667969 114.792969 85.703125 121.851562 78.640625 C 128.914062 71.578125 132.882812 62 132.882812 52.015625 C 132.882812 42.027344 128.914062 32.449219 121.851562 25.386719 C 114.792969 18.328125 105.214844 14.359375 95.226562 14.359375 C 85.238281 14.359375 75.664062 18.328125 68.601562 25.386719 C 61.539062 32.449219 57.570312 42.027344 57.570312 52.015625 Z M 57.570312 52.015625 " clip-rule="nonzero"/></clipPath><clipPath id="da3211d447"><path d="M 90 39 L 96 39 L 96 46 L 90 46 Z M 90 39 " clip-rule="nonzero"/></clipPath><clipPath id="cf42f75ea2"><path d="M 57.570312 52.015625 C 57.570312 62 61.539062 71.578125 68.601562 78.640625 C 75.664062 85.703125 85.238281 89.667969 95.226562 89.667969 C 105.214844 89.667969 114.792969 85.703125 121.851562 78.640625 C 128.914062 71.578125 132.882812 62 132.882812 52.015625 C 132.882812 42.027344 128.914062 32.449219 121.851562 25.386719 C 114.792969 18.328125 105.214844 14.359375 95.226562 14.359375 C 85.238281 14.359375 75.664062 18.328125 68.601562 25.386719 C 61.539062 32.449219 57.570312 42.027344 57.570312 52.015625 Z M 57.570312 52.015625 " clip-rule="nonzero"/></clipPath><clipPath id="960e55b7fe"><path d="M 77 39 L 83 39 L 83 46 L 77 46 Z M 77 39 " clip-rule="nonzero"/></clipPath><clipPath id="98844bc42f"><path d="M 57.570312 52.015625 C 57.570312 62 61.539062 71.578125 68.601562 78.640625 C 75.664062 85.703125 85.238281 89.667969 95.226562 89.667969 C 105.214844 89.667969 114.792969 85.703125 121.851562 78.640625 C 128.914062 71.578125 132.882812 62 132.882812 52.015625 C 132.882812 42.027344 128.914062 32.449219 121.851562 25.386719 C 114.792969 18.328125 105.214844 14.359375 95.226562 14.359375 C 85.238281 14.359375 75.664062 18.328125 68.601562 25.386719 C 61.539062 32.449219 57.570312 42.027344 57.570312 52.015625 Z M 57.570312 52.015625 " clip-rule="nonzero"/></clipPath><clipPath id="43316f600a"><path d="M 79 36 L 83 36 L 83 42 L 79 42 Z M 79 36 " clip-rule="nonzero"/></clipPath><clipPath id="05d9d603df"><path d="M 57.570312 52.015625 C 57.570312 62 61.539062 71.578125 68.601562 78.640625 C 75.664062 85.703125 85.238281 89.667969 95.226562 89.667969 C 105.214844 89.667969 114.792969 85.703125 121.851562 78.640625 C 128.914062 71.578125 132.882812 62 132.882812 52.015625 C 132.882812 42.027344 128.914062 32.449219 121.851562 25.386719 C 114.792969 18.328125 105.214844 14.359375 95.226562 14.359375 C 85.238281 14.359375 75.664062 18.328125 68.601562 25.386719 C 61.539062 32.449219 57.570312 42.027344 57.570312 52.015625 Z M 57.570312 52.015625 " clip-rule="nonzero"/></clipPath><clipPath id="9cd965dbee"><path d="M 91 36 L 94 36 L 94 41 L 91 41 Z M 91 36 " clip-rule="nonzero"/></clipPath><clipPath id="02b72d9b37"><path d="M 57.570312 52.015625 C 57.570312 62 61.539062 71.578125 68.601562 78.640625 C 75.664062 85.703125 85.238281 89.667969 95.226562 89.667969 C 105.214844 89.667969 114.792969 85.703125 121.851562 78.640625 C 128.914062 71.578125 132.882812 62 132.882812 52.015625 C 132.882812 42.027344 128.914062 32.449219 121.851562 25.386719 C 114.792969 18.328125 105.214844 14.359375 95.226562 14.359375 C 85.238281 14.359375 75.664062 18.328125 68.601562 25.386719 C 61.539062 32.449219 57.570312 42.027344 57.570312 52.015625 Z M 57.570312 52.015625 " clip-rule="nonzero"/></clipPath><clipPath id="b4d7ddefc7"><path d="M 87 32 L 91 32 L 91 36 L 87 36 Z M 87 32 " clip-rule="nonzero"/></clipPath><clipPath id="99548e62f0"><path d="M 57.570312 52.015625 C 57.570312 62 61.539062 71.578125 68.601562 78.640625 C 75.664062 85.703125 85.238281 89.667969 95.226562 89.667969 C 105.214844 89.667969 114.792969 85.703125 121.851562 78.640625 C 128.914062 71.578125 132.882812 62 132.882812 52.015625 C 132.882812 42.027344 128.914062 32.449219 121.851562 25.386719 C 114.792969 18.328125 105.214844 14.359375 95.226562 14.359375 C 85.238281 14.359375 75.664062 18.328125 68.601562 25.386719 C 61.539062 32.449219 57.570312 42.027344 57.570312 52.015625 Z M 57.570312 52.015625 " clip-rule="nonzero"/></clipPath><clipPath id="95c61060e3"><path d="M 82 32 L 87 32 L 87 36 L 82 36 Z M 82 32 " clip-rule="nonzero"/></clipPath><clipPath id="5ff237a6a6"><path d="M 57.570312 52.015625 C 57.570312 62 61.539062 71.578125 68.601562 78.640625 C 75.664062 85.703125 85.238281 89.667969 95.226562 89.667969 C 105.214844 89.667969 114.792969 85.703125 121.851562 78.640625 C 128.914062 71.578125 132.882812 62 132.882812 52.015625 C 132.882812 42.027344 128.914062 32.449219 121.851562 25.386719 C 114.792969 18.328125 105.214844 14.359375 95.226562 14.359375 C 85.238281 14.359375 75.664062 18.328125 68.601562 25.386719 C 61.539062 32.449219 57.570312 42.027344 57.570312 52.015625 Z M 57.570312 52.015625 " clip-rule="nonzero"/></clipPath><clipPath id="751e760a10"><path d="M 82 41 L 87 41 L 87 45 L 82 45 Z M 82 41 " clip-rule="nonzero"/></clipPath><clipPath id="5c2d7fe60a"><path d="M 57.570312 52.015625 C 57.570312 62 61.539062 71.578125 68.601562 78.640625 C 75.664062 85.703125 85.238281 89.667969 95.226562 89.667969 C 105.214844 89.667969 114.792969 85.703125 121.851562 78.640625 C 128.914062 71.578125 132.882812 62 132.882812 52.015625 C 132.882812 42.027344 128.914062 32.449219 121.851562 25.386719 C 114.792969 18.328125 105.214844 14.359375 95.226562 14.359375 C 85.238281 14.359375 75.664062 18.328125 68.601562 25.386719 C 61.539062 32.449219 57.570312 42.027344 57.570312 52.015625 Z M 57.570312 52.015625 " clip-rule="nonzero"/></clipPath><clipPath id="bb547a9201"><path d="M 87 41 L 91 41 L 91 45 L 87 45 Z M 87 41 " clip-rule="nonzero"/></clipPath><clipPath id="ca495d0e03"><path d="M 57.570312 52.015625 C 57.570312 62 61.539062 71.578125 68.601562 78.640625 C 75.664062 85.703125 85.238281 89.667969 95.226562 89.667969 C 105.214844 89.667969 114.792969 85.703125 121.851562 78.640625 C 128.914062 71.578125 132.882812 62 132.882812 52.015625 C 132.882812 42.027344 128.914062 32.449219 121.851562 25.386719 C 114.792969 18.328125 105.214844 14.359375 95.226562 14.359375 C 85.238281 14.359375 75.664062 18.328125 68.601562 25.386719 C 61.539062 32.449219 57.570312 42.027344 57.570312 52.015625 Z M 57.570312 52.015625 " clip-rule="nonzero"/></clipPath><clipPath id="55585cd6e4"><path d="M 83 44 L 85 44 L 85 48 L 83 48 Z M 83 44 " clip-rule="nonzero"/></clipPath><clipPath id="2f57e9a026"><path d="M 57.570312 52.015625 C 57.570312 62 61.539062 71.578125 68.601562 78.640625 C 75.664062 85.703125 85.238281 89.667969 95.226562 89.667969 C 105.214844 89.667969 114.792969 85.703125 121.851562 78.640625 C 128.914062 71.578125 132.882812 62 132.882812 52.015625 C 132.882812 42.027344 128.914062 32.449219 121.851562 25.386719 C 114.792969 18.328125 105.214844 14.359375 95.226562 14.359375 C 85.238281 14.359375 75.664062 18.328125 68.601562 25.386719 C 61.539062 32.449219 57.570312 42.027344 57.570312 52.015625 Z M 57.570312 52.015625 " clip-rule="nonzero"/></clipPath><clipPath id="2d50a7229b"><path d="M 88 44 L 91 44 L 91 48 L 88 48 Z M 88 44 " clip-rule="nonzero"/></clipPath><clipPath id="88d2d0e40b"><path d="M 57.570312 52.015625 C 57.570312 62 61.539062 71.578125 68.601562 78.640625 C 75.664062 85.703125 85.238281 89.667969 95.226562 89.667969 C 105.214844 89.667969 114.792969 85.703125 121.851562 78.640625 C 128.914062 71.578125 132.882812 62 132.882812 52.015625 C 132.882812 42.027344 128.914062 32.449219 121.851562 25.386719 C 114.792969 18.328125 105.214844 14.359375 95.226562 14.359375 C 85.238281 14.359375 75.664062 18.328125 68.601562 25.386719 C 61.539062 32.449219 57.570312 42.027344 57.570312 52.015625 Z M 57.570312 52.015625 " clip-rule="nonzero"/></clipPath><clipPath id="a8bfb2d121"><path d="M 83 32 L 90 32 L 90 35 L 83 35 Z M 83 32 " clip-rule="nonzero"/></clipPath><clipPath id="f3371c3142"><path d="M 57.570312 52.015625 C 57.570312 62 61.539062 71.578125 68.601562 78.640625 C 75.664062 85.703125 85.238281 89.667969 95.226562 89.667969 C 105.214844 89.667969 114.792969 85.703125 121.851562 78.640625 C 128.914062 71.578125 132.882812 62 132.882812 52.015625 C 132.882812 42.027344 128.914062 32.449219 121.851562 25.386719 C 114.792969 18.328125 105.214844 14.359375 95.226562 14.359375 C 85.238281 14.359375 75.664062 18.328125 68.601562 25.386719 C 61.539062 32.449219 57.570312 42.027344 57.570312 52.015625 Z M 57.570312 52.015625 " clip-rule="nonzero"/></clipPath><clipPath id="983da1ad2d"><path d="M 114 53 L 119 53 L 119 55 L 114 55 Z M 114 53 " clip-rule="nonzero"/></clipPath><clipPath id="7c69ce1d35"><path d="M 57.570312 52.015625 C 57.570312 62 61.539062 71.578125 68.601562 78.640625 C 75.664062 85.703125 85.238281 89.667969 95.226562 89.667969 C 105.214844 89.667969 114.792969 85.703125 121.851562 78.640625 C 128.914062 71.578125 132.882812 62 132.882812 52.015625 C 132.882812 42.027344 128.914062 32.449219 121.851562 25.386719 C 114.792969 18.328125 105.214844 14.359375 95.226562 14.359375 C 85.238281 14.359375 75.664062 18.328125 68.601562 25.386719 C 61.539062 32.449219 57.570312 42.027344 57.570312 52.015625 Z M 57.570312 52.015625 " clip-rule="nonzero"/></clipPath><clipPath id="bce77dee93"><path d="M 106 33 L 127 33 L 127 52 L 106 52 Z M 106 33 " clip-rule="nonzero"/></clipPath><clipPath id="05c6e7cca8"><path d="M 57.570312 52.015625 C 57.570312 62 61.539062 71.578125 68.601562 78.640625 C 75.664062 85.703125 85.238281 89.667969 95.226562 89.667969 C 105.214844 89.667969 114.792969 85.703125 121.851562 78.640625 C 128.914062 71.578125 132.882812 62 132.882812 52.015625 C 132.882812 42.027344 128.914062 32.449219 121.851562 25.386719 C 114.792969 18.328125 105.214844 14.359375 95.226562 14.359375 C 85.238281 14.359375 75.664062 18.328125 68.601562 25.386719 C 61.539062 32.449219 57.570312 42.027344 57.570312 52.015625 Z M 57.570312 52.015625 " clip-rule="nonzero"/></clipPath><clipPath id="705cb0e33f"><path d="M 117 48 L 122 48 L 122 53 L 117 53 Z M 117 48 " clip-rule="nonzero"/></clipPath><clipPath id="9075565185"><path d="M 57.570312 52.015625 C 57.570312 62 61.539062 71.578125 68.601562 78.640625 C 75.664062 85.703125 85.238281 89.667969 95.226562 89.667969 C 105.214844 89.667969 114.792969 85.703125 121.851562 78.640625 C 128.914062 71.578125 132.882812 62 132.882812 52.015625 C 132.882812 42.027344 128.914062 32.449219 121.851562 25.386719 C 114.792969 18.328125 105.214844 14.359375 95.226562 14.359375 C 85.238281 14.359375 75.664062 18.328125 68.601562 25.386719 C 61.539062 32.449219 57.570312 42.027344 57.570312 52.015625 Z M 57.570312 52.015625 " clip-rule="nonzero"/></clipPath><clipPath id="989c7cbb1b"><path d="M 111 49 L 116 49 L 116 53 L 111 53 Z M 111 49 " clip-rule="nonzero"/></clipPath><clipPath id="f738554964"><path d="M 57.570312 52.015625 C 57.570312 62 61.539062 71.578125 68.601562 78.640625 C 75.664062 85.703125 85.238281 89.667969 95.226562 89.667969 C 105.214844 89.667969 114.792969 85.703125 121.851562 78.640625 C 128.914062 71.578125 132.882812 62 132.882812 52.015625 C 132.882812 42.027344 128.914062 32.449219 121.851562 25.386719 C 114.792969 18.328125 105.214844 14.359375 95.226562 14.359375 C 85.238281 14.359375 75.664062 18.328125 68.601562 25.386719 C 61.539062 32.449219 57.570312 42.027344 57.570312 52.015625 Z M 57.570312 52.015625 " clip-rule="nonzero"/></clipPath><clipPath id="fc6ecbbcb1"><path d="M 115 50 L 119 50 L 119 53 L 115 53 Z M 115 50 " clip-rule="nonzero"/></clipPath><clipPath id="3a7561c5af"><path d="M 57.570312 52.015625 C 57.570312 62 61.539062 71.578125 68.601562 78.640625 C 75.664062 85.703125 85.238281 89.667969 95.226562 89.667969 C 105.214844 89.667969 114.792969 85.703125 121.851562 78.640625 C 128.914062 71.578125 132.882812 62 132.882812 52.015625 C 132.882812 42.027344 128.914062 32.449219 121.851562 25.386719 C 114.792969 18.328125 105.214844 14.359375 95.226562 14.359375 C 85.238281 14.359375 75.664062 18.328125 68.601562 25.386719 C 61.539062 32.449219 57.570312 42.027344 57.570312 52.015625 Z M 57.570312 52.015625 " clip-rule="nonzero"/></clipPath><clipPath id="4d4f2fd8b7"><path d="M 84 36 L 89 36 L 89 42 L 84 42 Z M 84 36 " clip-rule="nonzero"/></clipPath><clipPath id="402e5f0b2b"><path d="M 57.570312 52.015625 C 57.570312 62 61.539062 71.578125 68.601562 78.640625 C 75.664062 85.703125 85.238281 89.667969 95.226562 89.667969 C 105.214844 89.667969 114.792969 85.703125 121.851562 78.640625 C 128.914062 71.578125 132.882812 62 132.882812 52.015625 C 132.882812 42.027344 128.914062 32.449219 121.851562 25.386719 C 114.792969 18.328125 105.214844 14.359375 95.226562 14.359375 C 85.238281 14.359375 75.664062 18.328125 68.601562 25.386719 C 61.539062 32.449219 57.570312 42.027344 57.570312 52.015625 Z M 57.570312 52.015625 " clip-rule="nonzero"/></clipPath><clipPath id="32cb6ffd9f"><path d="M 80 39 L 82 39 L 82 41 L 80 41 Z M 80 39 " clip-rule="nonzero"/></clipPath><clipPath id="a5292bdd61"><path d="M 57.570312 52.015625 C 57.570312 62 61.539062 71.578125 68.601562 78.640625 C 75.664062 85.703125 85.238281 89.667969 95.226562 89.667969 C 105.214844 89.667969 114.792969 85.703125 121.851562 78.640625 C 128.914062 71.578125 132.882812 62 132.882812 52.015625 C 132.882812 42.027344 128.914062 32.449219 121.851562 25.386719 C 114.792969 18.328125 105.214844 14.359375 95.226562 14.359375 C 85.238281 14.359375 75.664062 18.328125 68.601562 25.386719 C 61.539062 32.449219 57.570312 42.027344 57.570312 52.015625 Z M 57.570312 52.015625 " clip-rule="nonzero"/></clipPath><clipPath id="e950289217"><path d="M 81 40 L 82 40 L 82 42 L 81 42 Z M 81 40 " clip-rule="nonzero"/></clipPath><clipPath id="08a4c3235a"><path d="M 57.570312 52.015625 C 57.570312 62 61.539062 71.578125 68.601562 78.640625 C 75.664062 85.703125 85.238281 89.667969 95.226562 89.667969 C 105.214844 89.667969 114.792969 85.703125 121.851562 78.640625 C 128.914062 71.578125 132.882812 62 132.882812 52.015625 C 132.882812 42.027344 128.914062 32.449219 121.851562 25.386719 C 114.792969 18.328125 105.214844 14.359375 95.226562 14.359375 C 85.238281 14.359375 75.664062 18.328125 68.601562 25.386719 C 61.539062 32.449219 57.570312 42.027344 57.570312 52.015625 Z M 57.570312 52.015625 " clip-rule="nonzero"/></clipPath><clipPath id="2427493854"><path d="M 109 36 L 124 36 L 124 51 L 109 51 Z M 109 36 " clip-rule="nonzero"/></clipPath><clipPath id="248ea2b8fb"><path d="M 57.570312 52.015625 C 57.570312 62 61.539062 71.578125 68.601562 78.640625 C 75.664062 85.703125 85.238281 89.667969 95.226562 89.667969 C 105.214844 89.667969 114.792969 85.703125 121.851562 78.640625 C 128.914062 71.578125 132.882812 62 132.882812 52.015625 C 132.882812 42.027344 128.914062 32.449219 121.851562 25.386719 C 114.792969 18.328125 105.214844 14.359375 95.226562 14.359375 C 85.238281 14.359375 75.664062 18.328125 68.601562 25.386719 C 61.539062 32.449219 57.570312 42.027344 57.570312 52.015625 Z M 57.570312 52.015625 " clip-rule="nonzero"/></clipPath><clipPath id="a4e3d3efb4"><path d="M 109 36 L 124 36 L 124 49 L 109 49 Z M 109 36 " clip-rule="nonzero"/></clipPath><clipPath id="528f68ca5a"><path d="M 57.570312 52.015625 C 57.570312 62 61.539062 71.578125 68.601562 78.640625 C 75.664062 85.703125 85.238281 89.667969 95.226562 89.667969 C 105.214844 89.667969 114.792969 85.703125 121.851562 78.640625 C 128.914062 71.578125 132.882812 62 132.882812 52.015625 C 132.882812 42.027344 128.914062 32.449219 121.851562 25.386719 C 114.792969 18.328125 105.214844 14.359375 95.226562 14.359375 C 85.238281 14.359375 75.664062 18.328125 68.601562 25.386719 C 61.539062 32.449219 57.570312 42.027344 57.570312 52.015625 Z M 57.570312 52.015625 " clip-rule="nonzero"/></clipPath><clipPath id="092b9d50a0"><path d="M 112 46 L 121 46 L 121 50 L 112 50 Z M 112 46 " clip-rule="nonzero"/></clipPath><clipPath id="63f39363b4"><path d="M 57.570312 52.015625 C 57.570312 62 61.539062 71.578125 68.601562 78.640625 C 75.664062 85.703125 85.238281 89.667969 95.226562 89.667969 C 105.214844 89.667969 114.792969 85.703125 121.851562 78.640625 C 128.914062 71.578125 132.882812 62 132.882812 52.015625 C 132.882812 42.027344 128.914062 32.449219 121.851562 25.386719 C 114.792969 18.328125 105.214844 14.359375 95.226562 14.359375 C 85.238281 14.359375 75.664062 18.328125 68.601562 25.386719 C 61.539062 32.449219 57.570312 42.027344 57.570312 52.015625 Z M 57.570312 52.015625 " clip-rule="nonzero"/></clipPath><clipPath id="a53169a61d"><path d="M 116 47 L 118 47 L 118 50 L 116 50 Z M 116 47 " clip-rule="nonzero"/></clipPath><clipPath id="5342e63d9b"><path d="M 57.570312 52.015625 C 57.570312 62 61.539062 71.578125 68.601562 78.640625 C 75.664062 85.703125 85.238281 89.667969 95.226562 89.667969 C 105.214844 89.667969 114.792969 85.703125 121.851562 78.640625 C 128.914062 71.578125 132.882812 62 132.882812 52.015625 C 132.882812 42.027344 128.914062 32.449219 121.851562 25.386719 C 114.792969 18.328125 105.214844 14.359375 95.226562 14.359375 C 85.238281 14.359375 75.664062 18.328125 68.601562 25.386719 C 61.539062 32.449219 57.570312 42.027344 57.570312 52.015625 Z M 57.570312 52.015625 " clip-rule="nonzero"/></clipPath><clipPath id="725b4ab2d0"><path d="M 112 38 L 121 38 L 121 46 L 112 46 Z M 112 38 " clip-rule="nonzero"/></clipPath><clipPath id="d0e6215f7d"><path d="M 57.570312 52.015625 C 57.570312 62 61.539062 71.578125 68.601562 78.640625 C 75.664062 85.703125 85.238281 89.667969 95.226562 89.667969 C 105.214844 89.667969 114.792969 85.703125 121.851562 78.640625 C 128.914062 71.578125 132.882812 62 132.882812 52.015625 C 132.882812 42.027344 128.914062 32.449219 121.851562 25.386719 C 114.792969 18.328125 105.214844 14.359375 95.226562 14.359375 C 85.238281 14.359375 75.664062 18.328125 68.601562 25.386719 C 61.539062 32.449219 57.570312 42.027344 57.570312 52.015625 Z M 57.570312 52.015625 " clip-rule="nonzero"/></clipPath><clipPath id="8baa32e69d"><path d="M 113 45 L 114 45 L 114 47 L 113 47 Z M 113 45 " clip-rule="nonzero"/></clipPath><clipPath id="0d38525ec5"><path d="M 57.570312 52.015625 C 57.570312 62 61.539062 71.578125 68.601562 78.640625 C 75.664062 85.703125 85.238281 89.667969 95.226562 89.667969 C 105.214844 89.667969 114.792969 85.703125 121.851562 78.640625 C 128.914062 71.578125 132.882812 62 132.882812 52.015625 C 132.882812 42.027344 128.914062 32.449219 121.851562 25.386719 C 114.792969 18.328125 105.214844 14.359375 95.226562 14.359375 C 85.238281 14.359375 75.664062 18.328125 68.601562 25.386719 C 61.539062 32.449219 57.570312 42.027344 57.570312 52.015625 Z M 57.570312 52.015625 " clip-rule="nonzero"/></clipPath><clipPath id="7063dc1169"><path d="M 119 45 L 120 45 L 120 47 L 119 47 Z M 119 45 " clip-rule="nonzero"/></clipPath><clipPath id="dd9fe9e931"><path d="M 57.570312 52.015625 C 57.570312 62 61.539062 71.578125 68.601562 78.640625 C 75.664062 85.703125 85.238281 89.667969 95.226562 89.667969 C 105.214844 89.667969 114.792969 85.703125 121.851562 78.640625 C 128.914062 71.578125 132.882812 62 132.882812 52.015625 C 132.882812 42.027344 128.914062 32.449219 121.851562 25.386719 C 114.792969 18.328125 105.214844 14.359375 95.226562 14.359375 C 85.238281 14.359375 75.664062 18.328125 68.601562 25.386719 C 61.539062 32.449219 57.570312 42.027344 57.570312 52.015625 Z M 57.570312 52.015625 " clip-rule="nonzero"/></clipPath><clipPath id="6d17e68364"><path d="M 113 46 L 119 46 L 119 48 L 113 48 Z M 113 46 " clip-rule="nonzero"/></clipPath><clipPath id="b99fd1015f"><path d="M 57.570312 52.015625 C 57.570312 62 61.539062 71.578125 68.601562 78.640625 C 75.664062 85.703125 85.238281 89.667969 95.226562 89.667969 C 105.214844 89.667969 114.792969 85.703125 121.851562 78.640625 C 128.914062 71.578125 132.882812 62 132.882812 52.015625 C 132.882812 42.027344 128.914062 32.449219 121.851562 25.386719 C 114.792969 18.328125 105.214844 14.359375 95.226562 14.359375 C 85.238281 14.359375 75.664062 18.328125 68.601562 25.386719 C 61.539062 32.449219 57.570312 42.027344 57.570312 52.015625 Z M 57.570312 52.015625 " clip-rule="nonzero"/></clipPath><clipPath id="c9ea575d0f"><path d="M 118 46 L 120 46 L 120 47 L 118 47 Z M 118 46 " clip-rule="nonzero"/></clipPath><clipPath id="b5419b53c3"><path d="M 57.570312 52.015625 C 57.570312 62 61.539062 71.578125 68.601562 78.640625 C 75.664062 85.703125 85.238281 89.667969 95.226562 89.667969 C 105.214844 89.667969 114.792969 85.703125 121.851562 78.640625 C 128.914062 71.578125 132.882812 62 132.882812 52.015625 C 132.882812 42.027344 128.914062 32.449219 121.851562 25.386719 C 114.792969 18.328125 105.214844 14.359375 95.226562 14.359375 C 85.238281 14.359375 75.664062 18.328125 68.601562 25.386719 C 61.539062 32.449219 57.570312 42.027344 57.570312 52.015625 Z M 57.570312 52.015625 " clip-rule="nonzero"/></clipPath><clipPath id="5cdd565ece"><path d="M 113 46 L 115 46 L 115 47 L 113 47 Z M 113 46 " clip-rule="nonzero"/></clipPath><clipPath id="b9cbfde8f0"><path d="M 57.570312 52.015625 C 57.570312 62 61.539062 71.578125 68.601562 78.640625 C 75.664062 85.703125 85.238281 89.667969 95.226562 89.667969 C 105.214844 89.667969 114.792969 85.703125 121.851562 78.640625 C 128.914062 71.578125 132.882812 62 132.882812 52.015625 C 132.882812 42.027344 128.914062 32.449219 121.851562 25.386719 C 114.792969 18.328125 105.214844 14.359375 95.226562 14.359375 C 85.238281 14.359375 75.664062 18.328125 68.601562 25.386719 C 61.539062 32.449219 57.570312 42.027344 57.570312 52.015625 Z M 57.570312 52.015625 " clip-rule="nonzero"/></clipPath><clipPath id="2da148871a"><path d="M 118 46 L 119 46 L 119 47 L 118 47 Z M 118 46 " clip-rule="nonzero"/></clipPath><clipPath id="d81443dd4b"><path d="M 57.570312 52.015625 C 57.570312 62 61.539062 71.578125 68.601562 78.640625 C 75.664062 85.703125 85.238281 89.667969 95.226562 89.667969 C 105.214844 89.667969 114.792969 85.703125 121.851562 78.640625 C 128.914062 71.578125 132.882812 62 132.882812 52.015625 C 132.882812 42.027344 128.914062 32.449219 121.851562 25.386719 C 114.792969 18.328125 105.214844 14.359375 95.226562 14.359375 C 85.238281 14.359375 75.664062 18.328125 68.601562 25.386719 C 61.539062 32.449219 57.570312 42.027344 57.570312 52.015625 Z M 57.570312 52.015625 " clip-rule="nonzero"/></clipPath><clipPath id="4128d481ce"><path d="M 112 39 L 121 39 L 121 46 L 112 46 Z M 112 39 " clip-rule="nonzero"/></clipPath><clipPath id="227ab977a2"><path d="M 57.570312 52.015625 C 57.570312 62 61.539062 71.578125 68.601562 78.640625 C 75.664062 85.703125 85.238281 89.667969 95.226562 89.667969 C 105.214844 89.667969 114.792969 85.703125 121.851562 78.640625 C 128.914062 71.578125 132.882812 62 132.882812 52.015625 C 132.882812 42.027344 128.914062 32.449219 121.851562 25.386719 C 114.792969 18.328125 105.214844 14.359375 95.226562 14.359375 C 85.238281 14.359375 75.664062 18.328125 68.601562 25.386719 C 61.539062 32.449219 57.570312 42.027344 57.570312 52.015625 Z M 57.570312 52.015625 " clip-rule="nonzero"/></clipPath><clipPath id="428f1f8b27"><path d="M 113 43 L 120 43 L 120 48 L 113 48 Z M 113 43 " clip-rule="nonzero"/></clipPath><clipPath id="f7f34858cc"><path d="M 57.570312 52.015625 C 57.570312 62 61.539062 71.578125 68.601562 78.640625 C 75.664062 85.703125 85.238281 89.667969 95.226562 89.667969 C 105.214844 89.667969 114.792969 85.703125 121.851562 78.640625 C 128.914062 71.578125 132.882812 62 132.882812 52.015625 C 132.882812 42.027344 128.914062 32.449219 121.851562 25.386719 C 114.792969 18.328125 105.214844 14.359375 95.226562 14.359375 C 85.238281 14.359375 75.664062 18.328125 68.601562 25.386719 C 61.539062 32.449219 57.570312 42.027344 57.570312 52.015625 Z M 57.570312 52.015625 " clip-rule="nonzero"/></clipPath><clipPath id="8e6da9ef22"><path d="M 57.242188 359.105469 L 210 359.105469 L 210 417.078125 L 57.242188 417.078125 Z M 57.242188 359.105469 " clip-rule="nonzero"/></clipPath><clipPath id="10151cca80"><path d="M 62.492188 359.105469 L 204.675781 359.105469 C 207.574219 359.105469 209.925781 361.453125 209.925781 364.351562 L 209.925781 411.828125 C 209.925781 414.726562 207.574219 417.078125 204.675781 417.078125 L 62.492188 417.078125 C 59.59375 417.078125 57.242188 414.726562 57.242188 411.828125 L 57.242188 364.351562 C 57.242188 361.453125 59.59375 359.105469 62.492188 359.105469 Z M 62.492188 359.105469 " clip-rule="nonzero"/></clipPath><clipPath id="5273838979"><path d="M 309.242188 359.105469 L 462 359.105469 L 462 417.078125 L 309.242188 417.078125 Z M 309.242188 359.105469 " clip-rule="nonzero"/></clipPath><clipPath id="0b912299a4"><path d="M 314.492188 359.105469 L 456.675781 359.105469 C 459.574219 359.105469 461.921875 361.453125 461.921875 364.351562 L 461.921875 411.828125 C 461.921875 414.726562 459.574219 417.078125 456.675781 417.078125 L 314.492188 417.078125 C 311.59375 417.078125 309.242188 414.726562 309.242188 411.828125 L 309.242188 364.351562 C 309.242188 361.453125 311.59375 359.105469 314.492188 359.105469 Z M 314.492188 359.105469 " clip-rule="nonzero"/></clipPath><clipPath id="93e992c058"><path d="M 561.496094 359.105469 L 714.351562 359.105469 L 714.351562 417.078125 L 561.496094 417.078125 Z M 561.496094 359.105469 " clip-rule="nonzero"/></clipPath><clipPath id="57cb9989ea"><path d="M 566.742188 359.105469 L 708.929688 359.105469 C 711.828125 359.105469 714.175781 361.453125 714.175781 364.351562 L 714.175781 411.828125 C 714.175781 414.726562 711.828125 417.078125 708.929688 417.078125 L 566.742188 417.078125 C 563.84375 417.078125 561.496094 414.726562 561.496094 411.828125 L 561.496094 364.351562 C 561.496094 361.453125 563.84375 359.105469 566.742188 359.105469 Z M 566.742188 359.105469 " clip-rule="nonzero"/></clipPath><clipPath id="704bacf7d4"><path d="M 813.75 359.105469 L 966.605469 359.105469 L 966.605469 417.078125 L 813.75 417.078125 Z M 813.75 359.105469 " clip-rule="nonzero"/></clipPath><clipPath id="cbc1afc304"><path d="M 818.996094 359.105469 L 961.179688 359.105469 C 964.078125 359.105469 966.429688 361.453125 966.429688 364.351562 L 966.429688 411.828125 C 966.429688 414.726562 964.078125 417.078125 961.179688 417.078125 L 818.996094 417.078125 C 816.097656 417.078125 813.75 414.726562 813.75 411.828125 L 813.75 364.351562 C 813.75 361.453125 816.097656 359.105469 818.996094 359.105469 Z M 818.996094 359.105469 " clip-rule="nonzero"/></clipPath><clipPath id="b66df5453b"><path d="M 57.570312 460.316406 L 210.429688 460.316406 L 210.429688 518.289062 L 57.570312 518.289062 Z M 57.570312 460.316406 " clip-rule="nonzero"/></clipPath><clipPath id="686ae1792e"><path d="M 62.820312 460.316406 L 205.003906 460.316406 C 207.902344 460.316406 210.253906 462.664062 210.253906 465.5625 L 210.253906 513.039062 C 210.253906 515.9375 207.902344 518.289062 205.003906 518.289062 L 62.820312 518.289062 C 59.921875 518.289062 57.570312 515.9375 57.570312 513.039062 L 57.570312 465.5625 C 57.570312 462.664062 59.921875 460.316406 62.820312 460.316406 Z M 62.820312 460.316406 " clip-rule="nonzero"/></clipPath><clipPath id="9ba56beb5a"><path d="M 309.242188 460.316406 L 462 460.316406 L 462 518.289062 L 309.242188 518.289062 Z M 309.242188 460.316406 " clip-rule="nonzero"/></clipPath><clipPath id="031621244c"><path d="M 314.492188 460.316406 L 456.675781 460.316406 C 459.574219 460.316406 461.921875 462.664062 461.921875 465.5625 L 461.921875 513.039062 C 461.921875 515.9375 459.574219 518.289062 456.675781 518.289062 L 314.492188 518.289062 C 311.59375 518.289062 309.242188 515.9375 309.242188 513.039062 L 309.242188 465.5625 C 309.242188 462.664062 311.59375 460.316406 314.492188 460.316406 Z M 314.492188 460.316406 " clip-rule="nonzero"/></clipPath><clipPath id="0dd27f5327"><path d="M 560.914062 460.316406 L 713.773438 460.316406 L 713.773438 518.289062 L 560.914062 518.289062 Z M 560.914062 460.316406 " clip-rule="nonzero"/></clipPath><clipPath id="3911cde0bd"><path d="M 566.164062 460.316406 L 708.347656 460.316406 C 711.246094 460.316406 713.59375 462.664062 713.59375 465.5625 L 713.59375 513.039062 C 713.59375 515.9375 711.246094 518.289062 708.347656 518.289062 L 566.164062 518.289062 C 563.265625 518.289062 560.914062 515.9375 560.914062 513.039062 L 560.914062 465.5625 C 560.914062 462.664062 563.265625 460.316406 566.164062 460.316406 Z M 566.164062 460.316406 " clip-rule="nonzero"/></clipPath></defs><g clip-path="url(#b7a548d657)"><path fill="#ffffff" d="M 0 0.140625 L 1024 0.140625 L 1024 575.859375 L 0 575.859375 Z M 0 0.140625 " fill-opacity="1" fill-rule="nonzero"/><path fill="#ffffff" d="M 0 0.140625 L 1024 0.140625 L 1024 575.859375 L 0 575.859375 Z M 0 0.140625 " fill-opacity="1" fill-rule="nonzero"/></g><g clip-path="url(#681d3d7d66)"><g clip-path="url(#a4725c9d7f)"><path fill="#e6f4fd" d="M 57.570312 156.441406 L 210.203125 156.441406 L 210.203125 214.414062 L 57.570312 214.414062 Z M 57.570312 156.441406 " fill-opacity="1" fill-rule="nonzero"/></g></g><g clip-path="url(#903f44a6da)"><g clip-path="url(#102dd78c79)"><path fill="#e6f4fd" d="M 57.242188 257.894531 L 209.875 257.894531 L 209.875 315.867188 L 57.242188 315.867188 Z M 57.242188 257.894531 " fill-opacity="1" fill-rule="nonzero"/></g></g><g clip-path="url(#b5ff41ea6e)"><g clip-path="url(#b05d241578)"><path fill="#e6f4fd" d="M 561.496094 259.015625 L 714.125 259.015625 L 714.125 316.984375 L 561.496094 316.984375 Z M 561.496094 259.015625 " fill-opacity="1" fill-rule="nonzero"/></g></g><g clip-path="url(#462081d5f6)"><g clip-path="url(#84a97b9217)"><path fill="#e6f4fd" d="M 309.242188 156.441406 L 461.875 156.441406 L 461.875 214.414062 L 309.242188 214.414062 Z M 309.242188 156.441406 " fill-opacity="1" fill-rule="nonzero"/></g></g><g clip-path="url(#e6c42c69ec)"><g clip-path="url(#b44332deff)"><path fill="#e6f4fd" d="M 813.75 460.316406 L 966.378906 460.316406 L 966.378906 518.289062 L 813.75 518.289062 Z M 813.75 460.316406 " fill-opacity="1" fill-rule="nonzero"/></g></g><g clip-path="url(#f8d11d0890)"><g clip-path="url(#a0a305dca2)"><path fill="#e6f4fd" d="M 813.75 156.441406 L 966.378906 156.441406 L 966.378906 214.414062 L 813.75 214.414062 Z M 813.75 156.441406 " fill-opacity="1" fill-rule="nonzero"/></g></g><g clip-path="url(#2dd6ea4af5)"><g clip-path="url(#30001bd963)"><path fill="#e6f4fd" d="M 560.875 156.441406 L 713.507812 156.441406 L 713.507812 214.414062 L 560.875 214.414062 Z M 560.875 156.441406 " fill-opacity="1" fill-rule="nonzero"/></g></g><g clip-path="url(#682c394c7e)"><g clip-path="url(#3b8de47de7)"><path fill="#e6f4fd" d="M 309.371094 257.191406 L 462 257.191406 L 462 315.164062 L 309.371094 315.164062 Z M 309.371094 257.191406 " fill-opacity="1" fill-rule="nonzero"/></g></g><g clip-path="url(#b9f1181119)"><g clip-path="url(#01a46fb593)"><path fill="#e6f4fd" d="M 813.75 257.894531 L 966.378906 257.894531 L 966.378906 315.867188 L 813.75 315.867188 Z M 813.75 257.894531 " fill-opacity="1" fill-rule="nonzero"/></g></g><g clip-path="url(#25326d0a1f)"><g mask="url(#ef8f41339e)"><g transform="matrix(1, 0, 0, 1, 0, -0.000000000000058398)"><g clip-path="url(#1d0acb8bfa)"><g clip-path="url(#e5a6af39d8)"><path fill="#e6f4fd" d="M 0 -0.164062 L 1024.132812 -0.164062 L 1024.132812 108.265625 L 0 108.265625 Z M 0 -0.164062 " fill-opacity="1" fill-rule="nonzero"/></g></g></g></g></g><g clip-path="url(#a64afdd640)"><g clip-path="url(#3981d9fe45)"><path fill="#ffffff" d="M 100.449219 89.472656 C 86.15625 89.472656 71.941406 89.472656 57.722656 89.472656 C 57.722656 64.484375 57.722656 39.496094 57.722656 14.507812 C 82.710938 14.507812 107.699219 14.507812 132.683594 14.507812 C 132.683594 39.496094 132.683594 64.484375 132.683594 89.472656 C 121.964844 89.472656 111.246094 89.472656 100.449219 89.472656 M 111.414062 52.472656 C 110.339844 55.488281 109.269531 58.507812 108.191406 61.546875 C 109.542969 61.546875 110.808594 61.546875 112.0625 61.546875 C 112.472656 60.332031 112.871094 59.160156 113.269531 57.992188 C 115.46875 57.992188 117.613281 57.992188 119.78125 57.992188 C 120.15625 59.1875 120.527344 60.371094 120.894531 61.539062 C 122.234375 61.539062 123.539062 61.539062 124.894531 61.539062 C 123.792969 58.433594 122.714844 55.386719 121.714844 52.289062 C 121.878906 52.175781 122.039062 52.058594 122.203125 51.949219 C 126.457031 49.117188 128.132812 43.875 126.257812 39.246094 C 124.335938 34.515625 119.515625 31.867188 114.523438 32.804688 C 107.789062 34.070312 104.066406 41.4375 107.023438 47.613281 C 108.003906 49.664062 109.53125 51.1875 111.414062 52.472656 M 84.707031 47.945312 C 84.707031 47.945312 84.699219 47.949219 84.605469 48.046875 C 84.730469 48.429688 84.960938 48.816406 84.964844 49.199219 C 84.988281 53.074219 84.980469 56.945312 84.980469 60.816406 C 84.980469 61.058594 84.980469 61.296875 84.980469 61.542969 C 86.238281 61.542969 87.425781 61.542969 88.636719 61.542969 C 88.636719 57.328125 88.632812 53.160156 88.640625 48.988281 C 88.640625 48.746094 88.621094 48.460938 88.734375 48.265625 C 89.320312 47.269531 89.945312 46.292969 90.597656 45.25 C 91.042969 45.304688 91.605469 45.375 92.234375 45.453125 C 92.234375 50.824219 92.234375 56.179688 92.234375 61.550781 C 93.46875 61.550781 94.628906 61.550781 95.859375 61.550781 C 95.859375 59.253906 95.859375 56.996094 95.859375 54.828125 C 97.621094 54.828125 99.316406 54.765625 101.003906 54.851562 C 101.871094 54.898438 102.308594 55.476562 102.402344 56.347656 C 102.476562 57.019531 102.484375 57.695312 102.53125 58.367188 C 102.605469 59.425781 102.691406 60.484375 102.777344 61.554688 C 104.265625 61.554688 105.605469 61.554688 106.992188 61.554688 C 106.949219 61.375 106.957031 61.164062 106.871094 61.113281 C 106.316406 60.773438 106.269531 60.234375 106.25 59.675781 C 106.222656 58.777344 106.183594 57.878906 106.167969 56.980469 C 106.140625 55.332031 105.851562 53.828125 103.992188 53.140625 C 105.226562 52.570312 106.074219 51.78125 106.457031 50.550781 C 107.453125 47.339844 105.371094 44.242188 102.015625 44.046875 C 100.347656 43.949219 98.671875 43.980469 96.996094 43.992188 C 96.277344 43.996094 95.992188 43.582031 96.003906 42.992188 C 96.027344 41.882812 95.597656 40.957031 95.019531 40.066406 C 94.738281 39.636719 94.417969 39.230469 94.203125 38.9375 C 94.773438 37.910156 95.410156 37.027344 95.78125 36.042969 C 96.496094 34.148438 95.476562 32.550781 93.460938 32.339844 C 92.460938 32.234375 91.441406 32.320312 90.554688 32.320312 C 89.925781 31.34375 89.292969 30.371094 88.671875 29.390625 C 88.496094 29.113281 88.386719 28.785156 88.1875 28.527344 C 87.945312 28.21875 87.667969 27.777344 87.351562 27.726562 C 86.988281 27.667969 86.535156 27.921875 86.183594 28.136719 C 85.867188 28.328125 85.632812 28.65625 85.359375 28.921875 C 85.035156 29.230469 84.640625 29.492188 84.402344 29.855469 C 83.867188 30.683594 83.414062 31.566406 83.03125 32.238281 C 81.71875 32.328125 80.46875 32.296875 79.269531 32.53125 C 78.019531 32.773438 77.269531 33.925781 77.496094 35.171875 C 77.640625 35.980469 78.023438 36.761719 78.386719 37.511719 C 78.621094 37.992188 79.011719 38.398438 79.230469 38.703125 C 78.652344 39.792969 78.125 40.800781 77.589844 41.800781 C 77.410156 42.132812 77.246094 42.488281 77 42.761719 C 76.496094 43.316406 76.554688 44.109375 77.203125 44.488281 C 77.421875 44.621094 77.6875 44.671875 77.914062 44.75 C 77.914062 48.546875 77.914062 52.304688 77.914062 56.214844 C 77.710938 55.886719 77.578125 55.691406 77.460938 55.488281 C 75.375 51.828125 73.292969 48.167969 71.191406 44.519531 C 71.0625 44.296875 70.789062 44.015625 70.574219 44.007812 C 69.40625 43.957031 68.234375 43.984375 67.054688 43.984375 C 67.054688 49.878906 67.054688 55.710938 67.054688 61.542969 C 68.203125 61.542969 69.3125 61.542969 70.488281 61.542969 C 70.488281 57.40625 70.488281 53.308594 70.488281 49.019531 C 70.707031 49.398438 70.828125 49.609375 70.949219 49.816406 C 73.089844 53.558594 75.226562 57.304688 77.378906 61.039062 C 77.5 61.253906 77.722656 61.554688 77.90625 61.5625 C 79.046875 61.609375 80.1875 61.585938 81.394531 61.585938 C 81.394531 56.144531 81.394531 50.789062 81.394531 45.4375 C 81.972656 45.363281 82.484375 45.296875 82.953125 45.238281 C 83.367188 46.03125 83.738281 46.789062 84.15625 47.519531 C 84.265625 47.707031 84.515625 47.8125 84.707031 47.945312 Z M 84.707031 47.945312 " fill-opacity="1" fill-rule="nonzero"/></g></g><g clip-path="url(#7aa7f786df)"><g clip-path="url(#8fcb835bc9)"><path fill="#040404" d="M 84.703125 47.953125 C 84.515625 47.8125 84.265625 47.707031 84.15625 47.519531 C 83.738281 46.789062 83.367188 46.03125 82.953125 45.238281 C 82.484375 45.296875 81.972656 45.363281 81.394531 45.4375 C 81.394531 50.789062 81.394531 56.144531 81.394531 61.585938 C 80.1875 61.585938 79.046875 61.609375 77.90625 61.5625 C 77.722656 61.554688 77.5 61.253906 77.378906 61.039062 C 75.226562 57.304688 73.089844 53.558594 70.949219 49.816406 C 70.828125 49.609375 70.707031 49.398438 70.488281 49.019531 C 70.488281 53.308594 70.488281 57.40625 70.488281 61.542969 C 69.3125 61.542969 68.203125 61.542969 67.054688 61.542969 C 67.054688 55.710938 67.054688 49.878906 67.054688 43.984375 C 68.234375 43.984375 69.40625 43.957031 70.574219 44.007812 C 70.789062 44.015625 71.0625 44.296875 71.191406 44.519531 C 73.292969 48.167969 75.375 51.828125 77.460938 55.488281 C 77.578125 55.691406 77.710938 55.886719 77.914062 56.214844 C 77.914062 52.304688 77.914062 48.546875 77.914062 44.75 C 77.6875 44.671875 77.421875 44.621094 77.203125 44.488281 C 76.554688 44.109375 76.496094 43.316406 77 42.761719 C 77.246094 42.488281 77.410156 42.132812 77.589844 41.800781 C 78.125 40.800781 78.652344 39.792969 79.230469 38.703125 C 79.011719 38.398438 78.621094 37.992188 78.386719 37.511719 C 78.023438 36.761719 77.640625 35.980469 77.496094 35.171875 C 77.269531 33.925781 78.019531 32.773438 79.269531 32.53125 C 80.46875 32.296875 81.71875 32.328125 83.03125 32.238281 C 83.414062 31.566406 83.867188 30.683594 84.402344 29.855469 C 84.640625 29.492188 85.035156 29.230469 85.359375 28.921875 C 85.632812 28.65625 85.867188 28.328125 86.183594 28.136719 C 86.535156 27.921875 86.988281 27.667969 87.351562 27.726562 C 87.667969 27.777344 87.945312 28.21875 88.1875 28.527344 C 88.386719 28.785156 88.496094 29.113281 88.671875 29.390625 C 89.292969 30.371094 89.925781 31.34375 90.554688 32.320312 C 91.441406 32.320312 92.460938 32.234375 93.460938 32.339844 C 95.476562 32.550781 96.496094 34.148438 95.78125 36.042969 C 95.410156 37.027344 94.773438 37.910156 94.203125 38.9375 C 94.417969 39.230469 94.738281 39.636719 95.019531 40.066406 C 95.597656 40.957031 96.027344 41.882812 96.003906 42.992188 C 95.992188 43.582031 96.277344 43.996094 96.996094 43.992188 C 98.671875 43.980469 100.347656 43.949219 102.015625 44.046875 C 105.371094 44.242188 107.453125 47.339844 106.457031 50.550781 C 106.074219 51.78125 105.226562 52.570312 103.992188 53.140625 C 105.851562 53.828125 106.140625 55.332031 106.167969 56.980469 C 106.183594 57.878906 106.222656 58.777344 106.25 59.675781 C 106.269531 60.234375 106.316406 60.773438 106.871094 61.113281 C 106.957031 61.164062 106.949219 61.375 106.992188 61.554688 C 105.605469 61.554688 104.265625 61.554688 102.777344 61.554688 C 102.691406 60.484375 102.605469 59.425781 102.53125 58.367188 C 102.484375 57.695312 102.476562 57.019531 102.402344 56.347656 C 102.308594 55.476562 101.871094 54.898438 101.003906 54.851562 C 99.316406 54.765625 97.621094 54.828125 95.859375 54.828125 C 95.859375 56.996094 95.859375 59.253906 95.859375 61.550781 C 94.628906 61.550781 93.46875 61.550781 92.234375 61.550781 C 92.234375 56.179688 92.234375 50.824219 92.234375 45.453125 C 91.605469 45.375 91.042969 45.304688 90.597656 45.25 C 89.945312 46.292969 89.320312 47.269531 88.734375 48.265625 C 88.621094 48.460938 88.640625 48.746094 88.640625 48.988281 C 88.632812 53.160156 88.636719 57.328125 88.636719 61.542969 C 87.425781 61.542969 86.238281 61.542969 84.980469 61.542969 C 84.980469 61.296875 84.980469 61.058594 84.980469 60.816406 C 84.980469 56.945312 84.988281 53.074219 84.964844 49.199219 C 84.960938 48.816406 84.730469 48.429688 84.710938 47.964844 C 84.867188 47.863281 84.964844 47.839844 84.964844 47.816406 C 84.972656 46.804688 84.972656 45.792969 84.972656 44.71875 C 84.394531 44.882812 83.898438 45.023438 83.371094 45.171875 C 83.46875 45.449219 83.539062 45.714844 83.660156 45.957031 C 83.996094 46.628906 84.351562 47.289062 84.703125 47.953125 M 85.789062 34.164062 C 85.828125 34.207031 85.867188 34.246094 85.824219 34.355469 C 84.867188 34.921875 83.898438 35.472656 82.957031 36.070312 C 82.738281 36.210938 82.496094 36.5 82.476562 36.738281 C 82.394531 37.625 82.382812 38.519531 82.375 39.414062 C 82.363281 40.464844 82.335938 41.53125 83.449219 42.210938 C 83.183594 42.085938 82.921875 41.960938 82.492188 41.757812 C 82.742188 42.863281 82.964844 43.851562 83.21875 44.972656 C 84.277344 44.546875 85.195312 44.179688 86.109375 43.8125 C 85.359375 43.390625 84.578125 42.964844 83.816406 42.511719 C 83.675781 42.425781 83.601562 42.226562 83.609375 42.054688 C 84.457031 42.523438 85.316406 42.976562 86.152344 43.472656 C 86.566406 43.71875 86.914062 43.695312 87.316406 43.457031 C 88.34375 42.851562 89.378906 42.253906 90.421875 41.675781 C 90.839844 41.445312 91.03125 41.148438 91.023438 40.664062 C 91 39.441406 91.050781 38.21875 90.988281 37 C 90.972656 36.671875 90.730469 36.238281 90.457031 36.058594 C 89.421875 35.371094 88.332031 34.769531 87.277344 34.003906 C 87.285156 33.960938 87.292969 33.917969 87.40625 33.90625 C 88.542969 34.546875 89.679688 35.183594 90.976562 35.910156 C 90.726562 34.882812 90.53125 33.992188 90.273438 33.121094 C 90.234375 32.988281 89.921875 32.933594 89.652344 32.800781 C 89.605469 32.757812 89.558594 32.71875 89.628906 32.640625 C 89.742188 32.503906 89.980469 32.328125 89.953125 32.242188 C 89.578125 31.132812 89.078125 30.097656 88.152344 29.328125 C 87.191406 30.15625 86.636719 30.066406 85.875 28.96875 C 84.460938 29.734375 83.898438 31.074219 83.386719 32.5 C 83.625 32.574219 83.789062 32.628906 83.890625 32.753906 C 83.835938 32.785156 83.777344 32.816406 83.613281 32.847656 C 83.476562 32.898438 83.238281 32.921875 83.214844 33.003906 C 82.960938 33.917969 82.742188 34.839844 82.476562 35.894531 C 83.683594 35.238281 84.699219 34.679688 85.789062 34.164062 M 79.65625 39.199219 C 78.582031 39.996094 78.117188 41.136719 77.746094 42.402344 C 78.6875 42.570312 78.980469 43.128906 78.894531 43.996094 C 79.722656 43.996094 80.511719 43.996094 81.332031 43.996094 C 81.363281 44.390625 81.386719 44.726562 81.417969 45.125 C 81.941406 45.050781 82.417969 44.984375 82.875 44.921875 C 82.675781 44.011719 82.511719 43.160156 82.300781 42.316406 C 82.195312 41.882812 82.007812 41.46875 81.90625 40.929688 C 81.980469 40.859375 82.117188 40.789062 82.117188 40.71875 C 82.128906 39.421875 82.125 38.121094 82.125 36.632812 C 81.53125 37.15625 81.070312 37.589844 80.578125 37.980469 C 80.429688 38.097656 80.191406 38.101562 80.074219 38.058594 C 80.65625 37.542969 81.25 37.039062 81.8125 36.507812 C 81.996094 36.332031 82.183594 36.089844 82.234375 35.851562 C 82.460938 34.839844 82.636719 33.816406 82.871094 32.59375 C 81.769531 32.648438 80.675781 32.585938 79.625 32.785156 C 78.164062 33.058594 77.480469 34.210938 77.847656 35.621094 C 78.140625 36.730469 78.738281 37.691406 79.539062 38.53125 C 79.742188 38.375 79.894531 38.253906 80.152344 38.28125 C 80.023438 38.609375 79.890625 38.9375 79.65625 39.199219 M 92.226562 40.464844 C 92.699219 39.925781 93.175781 39.390625 93.621094 38.890625 C 93.535156 38.675781 93.464844 38.507812 93.480469 38.238281 C 93.621094 38.328125 93.761719 38.421875 94.070312 38.621094 C 94.578125 37.648438 95.164062 36.75 95.535156 35.769531 C 96.007812 34.515625 95.445312 33.320312 94.261719 32.882812 C 93.0625 32.445312 91.828125 32.546875 90.550781 32.75 C 90.699219 33.339844 90.9375 33.863281 90.945312 34.390625 C 90.964844 35.800781 91.699219 36.726562 92.769531 37.503906 C 93.042969 37.703125 93.199219 38.0625 93.3125 38.398438 C 92.695312 37.84375 92.074219 37.289062 91.3125 36.601562 C 91.355469 37.496094 91.414062 38.179688 91.414062 38.859375 C 91.414062 39.535156 91.355469 40.214844 91.328125 40.84375 C 91.71875 40.722656 92.054688 40.617188 92.308594 40.605469 C 91.9375 41.015625 91.386719 41.363281 91.230469 41.839844 C 90.910156 42.816406 90.804688 43.867188 90.601562 44.933594 C 91.101562 44.996094 91.628906 45.058594 92.199219 45.128906 C 92.222656 44.710938 92.242188 44.375 92.261719 43.988281 C 92.78125 43.988281 93.253906 44.003906 93.71875 43.976562 C 93.894531 43.96875 94.082031 43.882812 94.230469 43.785156 C 94.664062 43.496094 95.082031 43.183594 95.6875 42.753906 C 95.730469 41.445312 94.851562 40.292969 93.910156 39.125 C 93.378906 39.613281 92.867188 40.082031 92.226562 40.464844 M 102.917969 50.121094 C 103.253906 48.054688 102.402344 47.042969 100.3125 47.023438 C 99.515625 47.019531 98.71875 47.023438 97.921875 47.023438 C 97.234375 47.023438 96.550781 47.023438 95.875 47.023438 C 95.875 48.648438 95.875 50.15625 95.875 51.683594 C 97.585938 51.683594 99.253906 51.730469 100.921875 51.664062 C 101.828125 51.628906 102.621094 51.25 102.917969 50.121094 M 87.507812 43.976562 C 87.871094 44.011719 88.480469 43.933594 88.558594 44.101562 C 88.921875 44.886719 89.640625 44.585938 90.253906 44.914062 C 90.496094 43.820312 90.714844 42.847656 90.953125 41.769531 C 89.664062 42.488281 88.519531 43.125 87.382812 43.769531 C 87.363281 43.78125 87.394531 43.878906 87.507812 43.976562 M 88.628906 46.074219 C 88.628906 46.617188 88.628906 47.15625 88.628906 47.699219 C 88.703125 47.714844 88.78125 47.734375 88.859375 47.75 C 89.285156 46.910156 89.714844 46.070312 90.164062 45.1875 C 89.582031 45.03125 89.136719 44.90625 88.628906 44.769531 C 88.628906 45.199219 88.628906 45.566406 88.628906 46.074219 Z M 88.628906 46.074219 " fill-opacity="1" fill-rule="nonzero"/></g></g><g clip-path="url(#bd454353f7)"><g clip-path="url(#9f906dd5c7)"><path fill="#030303" d="M 121.632812 52.339844 C 122.714844 55.386719 123.792969 58.433594 124.894531 61.539062 C 123.539062 61.539062 122.234375 61.539062 120.894531 61.539062 C 120.527344 60.371094 120.15625 59.1875 119.78125 57.992188 C 117.613281 57.992188 115.46875 57.992188 113.269531 57.992188 C 112.871094 59.160156 112.472656 60.332031 112.0625 61.546875 C 110.808594 61.546875 109.542969 61.546875 108.191406 61.546875 C 109.269531 58.507812 110.339844 55.488281 111.484375 52.4375 C 112.601562 52.769531 113.648438 53.136719 114.6875 53.558594 C 114.542969 54.023438 114.410156 54.441406 114.265625 54.886719 C 115.800781 54.886719 117.238281 54.886719 118.734375 54.886719 C 118.582031 54.386719 118.441406 53.941406 118.355469 53.472656 C 119.484375 53.078125 120.558594 52.710938 121.632812 52.339844 Z M 121.632812 52.339844 " fill-opacity="1" fill-rule="nonzero"/></g></g><g clip-path="url(#32768468a2)"><g clip-path="url(#d84c40e2a2)"><path fill="#fd3b3b" d="M 114.695312 53.503906 C 113.648438 53.136719 112.601562 52.769531 111.503906 52.378906 C 109.53125 51.1875 108.003906 49.664062 107.023438 47.613281 C 104.066406 41.4375 107.789062 34.070312 114.523438 32.804688 C 119.515625 31.867188 124.335938 34.515625 126.257812 39.246094 C 128.132812 43.875 126.457031 49.117188 122.203125 51.949219 C 122.039062 52.058594 121.878906 52.175781 121.675781 52.3125 C 120.558594 52.710938 119.484375 53.078125 118.285156 53.464844 C 117.007812 53.488281 115.851562 53.496094 114.695312 53.503906 M 115.0625 52.855469 C 116.0625 52.824219 117.0625 52.796875 118.183594 52.78125 C 119.246094 52.375 120.304688 51.96875 121.46875 51.546875 C 121.664062 51.441406 121.875 51.359375 122.054688 51.234375 C 126.230469 48.410156 127.570312 42.792969 125.128906 38.375 C 122.65625 33.894531 117.195312 32 112.570312 34.105469 C 108.855469 35.796875 106.796875 38.753906 106.695312 42.839844 C 106.597656 46.710938 108.296875 49.703125 111.773438 51.734375 C 112.835938 52.085938 113.894531 52.4375 115.0625 52.855469 Z M 115.0625 52.855469 " fill-opacity="1" fill-rule="nonzero"/></g></g><g clip-path="url(#ff3ceba900)"><g clip-path="url(#7fd70253bf)"><path fill="#fbfbfb" d="M 83.503906 42.085938 C 82.335938 41.53125 82.363281 40.464844 82.375 39.414062 C 82.382812 38.519531 82.394531 37.625 82.476562 36.738281 C 82.496094 36.5 82.738281 36.210938 82.957031 36.070312 C 83.898438 35.472656 84.867188 34.921875 85.917969 34.316406 C 86.429688 34.230469 86.84375 34.183594 87.261719 34.136719 C 88.332031 34.769531 89.421875 35.371094 90.457031 36.058594 C 90.730469 36.238281 90.972656 36.671875 90.988281 37 C 91.050781 38.21875 91 39.441406 91.023438 40.664062 C 91.03125 41.148438 90.839844 41.445312 90.421875 41.675781 C 89.378906 42.253906 88.34375 42.851562 87.316406 43.457031 C 86.914062 43.695312 86.566406 43.71875 86.152344 43.472656 C 85.316406 42.976562 84.457031 42.523438 83.550781 42.070312 C 83.496094 42.085938 83.503906 42.085938 83.503906 42.085938 M 88.488281 40.234375 C 89.292969 39.003906 89.042969 37.589844 87.902344 36.914062 C 86.746094 36.234375 85.328125 36.648438 84.710938 37.847656 C 84.226562 38.789062 84.484375 39.945312 85.324219 40.597656 C 86.285156 41.347656 87.40625 41.246094 88.488281 40.234375 Z M 88.488281 40.234375 " fill-opacity="1" fill-rule="nonzero"/></g></g><g clip-path="url(#dda60701f1)"><g clip-path="url(#cee489d56d)"><path fill="#fdfdfd" d="M 102.898438 50.179688 C 102.621094 51.25 101.828125 51.628906 100.921875 51.664062 C 99.253906 51.730469 97.585938 51.683594 95.875 51.683594 C 95.875 50.15625 95.875 48.648438 95.875 47.023438 C 96.550781 47.023438 97.234375 47.023438 97.921875 47.023438 C 98.71875 47.023438 99.515625 47.019531 100.3125 47.023438 C 102.402344 47.042969 103.253906 48.054688 102.898438 50.179688 Z M 102.898438 50.179688 " fill-opacity="1" fill-rule="nonzero"/></g></g><g clip-path="url(#a22ae1c017)"><g clip-path="url(#7b388f902b)"><path fill="#fcfcfc" d="M 93.410156 38.347656 C 93.199219 38.0625 93.042969 37.703125 92.769531 37.503906 C 91.699219 36.726562 90.964844 35.800781 90.945312 34.390625 C 90.9375 33.863281 90.699219 33.339844 90.550781 32.75 C 91.828125 32.546875 93.0625 32.445312 94.261719 32.882812 C 95.445312 33.320312 96.007812 34.515625 95.535156 35.769531 C 95.164062 36.75 94.578125 37.648438 94.070312 38.621094 C 93.761719 38.421875 93.621094 38.328125 93.441406 38.292969 C 93.398438 38.347656 93.410156 38.347656 93.410156 38.347656 Z M 93.410156 38.347656 " fill-opacity="1" fill-rule="nonzero"/></g></g><g clip-path="url(#fb43984d93)"><g clip-path="url(#6abe9a2d2c)"><path fill="#fcfcfc" d="M 80.050781 38.132812 C 79.894531 38.253906 79.742188 38.375 79.539062 38.53125 C 78.738281 37.691406 78.140625 36.730469 77.847656 35.621094 C 77.480469 34.210938 78.164062 33.058594 79.625 32.785156 C 80.675781 32.585938 81.769531 32.648438 82.871094 32.59375 C 82.636719 33.816406 82.460938 34.839844 82.234375 35.851562 C 82.183594 36.089844 81.996094 36.332031 81.8125 36.507812 C 81.25 37.039062 80.65625 37.542969 80.039062 38.109375 C 80.007812 38.160156 80.050781 38.132812 80.050781 38.132812 Z M 80.050781 38.132812 " fill-opacity="1" fill-rule="nonzero"/></g></g><g clip-path="url(#8d6aebeeae)"><g clip-path="url(#10eb1b7e71)"><path fill="#fafafa" d="M 83.949219 32.679688 C 83.789062 32.628906 83.625 32.574219 83.386719 32.5 C 83.898438 31.074219 84.460938 29.734375 85.875 28.96875 C 86.636719 30.066406 87.191406 30.15625 88.152344 29.328125 C 89.078125 30.097656 89.578125 31.132812 89.953125 32.242188 C 89.980469 32.328125 89.742188 32.503906 89.511719 32.65625 C 87.714844 33.457031 86.023438 33.660156 84.308594 32.769531 C 84.203125 32.714844 84.070312 32.707031 83.949219 32.679688 Z M 83.949219 32.679688 " fill-opacity="1" fill-rule="nonzero"/></g></g><g clip-path="url(#da3211d447)"><g clip-path="url(#cf42f75ea2)"><path fill="#f9f9f9" d="M 92.359375 40.550781 C 92.867188 40.082031 93.378906 39.613281 93.910156 39.125 C 94.851562 40.292969 95.730469 41.445312 95.6875 42.753906 C 95.082031 43.183594 94.664062 43.496094 94.230469 43.785156 C 94.082031 43.882812 93.894531 43.96875 93.71875 43.976562 C 93.253906 44.003906 92.78125 43.988281 92.261719 43.988281 C 92.242188 44.375 92.222656 44.710938 92.199219 45.128906 C 91.628906 45.058594 91.101562 44.996094 90.601562 44.933594 C 90.804688 43.867188 90.910156 42.816406 91.230469 41.839844 C 91.386719 41.363281 91.9375 41.015625 92.339844 40.558594 C 92.371094 40.511719 92.359375 40.550781 92.359375 40.550781 Z M 92.359375 40.550781 " fill-opacity="1" fill-rule="nonzero"/></g></g><g clip-path="url(#960e55b7fe)"><g clip-path="url(#98844bc42f)"><path fill="#f9f9f9" d="M 81.855469 41.046875 C 82.007812 41.46875 82.195312 41.882812 82.300781 42.316406 C 82.511719 43.160156 82.675781 44.011719 82.875 44.921875 C 82.417969 44.984375 81.941406 45.050781 81.417969 45.125 C 81.386719 44.726562 81.363281 44.390625 81.332031 43.996094 C 80.511719 43.996094 79.722656 43.996094 78.894531 43.996094 C 78.980469 43.128906 78.6875 42.570312 77.746094 42.402344 C 78.117188 41.136719 78.582031 39.996094 79.714844 39.28125 C 79.875 39.421875 79.972656 39.488281 80.078125 39.601562 C 80.476562 39.96875 80.871094 40.285156 81.261719 40.601562 C 81.261719 40.59375 81.25 40.59375 81.253906 40.648438 C 81.457031 40.816406 81.660156 40.9375 81.863281 41.050781 C 81.863281 41.046875 81.855469 41.046875 81.855469 41.046875 Z M 81.855469 41.046875 " fill-opacity="1" fill-rule="nonzero"/></g></g><g clip-path="url(#43316f600a)"><g clip-path="url(#05d9d603df)"><path fill="#f6f6f6" d="M 80.074219 39.550781 C 79.972656 39.488281 79.875 39.421875 79.769531 39.3125 C 79.890625 38.9375 80.023438 38.609375 80.101562 38.207031 C 80.050781 38.132812 80.007812 38.160156 80 38.160156 C 80.191406 38.101562 80.429688 38.097656 80.578125 37.980469 C 81.070312 37.589844 81.53125 37.15625 82.125 36.632812 C 82.125 38.121094 82.128906 39.421875 82.117188 40.71875 C 82.117188 40.789062 81.980469 40.859375 81.882812 40.988281 C 81.855469 41.046875 81.863281 41.046875 81.910156 41 C 81.71875 40.835938 81.484375 40.714844 81.25 40.59375 C 81.25 40.59375 81.261719 40.59375 81.308594 40.558594 C 80.929688 40.199219 80.5 39.875 80.074219 39.550781 Z M 80.074219 39.550781 " fill-opacity="1" fill-rule="nonzero"/></g></g><g clip-path="url(#9cd965dbee)"><g clip-path="url(#02b72d9b37)"><path fill="#f5f5f5" d="M 92.292969 40.507812 C 92.359375 40.550781 92.371094 40.511719 92.382812 40.511719 C 92.054688 40.617188 91.71875 40.722656 91.328125 40.84375 C 91.355469 40.214844 91.414062 39.535156 91.414062 38.859375 C 91.414062 38.179688 91.355469 37.496094 91.3125 36.601562 C 92.074219 37.289062 92.695312 37.84375 93.359375 38.375 C 93.410156 38.347656 93.398438 38.347656 93.398438 38.34375 C 93.464844 38.507812 93.535156 38.675781 93.621094 38.890625 C 93.175781 39.390625 92.699219 39.925781 92.292969 40.507812 Z M 92.292969 40.507812 " fill-opacity="1" fill-rule="nonzero"/></g></g><g clip-path="url(#b4d7ddefc7)"><g clip-path="url(#99548e62f0)"><path fill="#f6f6f6" d="M 89.734375 32.84375 C 89.921875 32.933594 90.234375 32.988281 90.273438 33.121094 C 90.53125 33.992188 90.726562 34.882812 90.976562 35.910156 C 89.679688 35.183594 88.542969 34.546875 87.328125 33.847656 C 88.074219 33.472656 88.90625 33.160156 89.734375 32.84375 Z M 89.734375 32.84375 " fill-opacity="1" fill-rule="nonzero"/></g></g><g clip-path="url(#95c61060e3)"><g clip-path="url(#5ff237a6a6)"><path fill="#f6f6f6" d="M 85.714844 34.125 C 84.699219 34.679688 83.683594 35.238281 82.476562 35.894531 C 82.742188 34.839844 82.960938 33.917969 83.214844 33.003906 C 83.238281 32.921875 83.476562 32.898438 83.710938 32.886719 C 84.605469 33.179688 85.398438 33.4375 86.273438 33.71875 C 86.019531 33.902344 85.867188 34.015625 85.714844 34.125 Z M 85.714844 34.125 " fill-opacity="1" fill-rule="nonzero"/></g></g><g clip-path="url(#751e760a10)"><g clip-path="url(#5c2d7fe60a)"><path fill="#f3f3f3" d="M 83.496094 42.082031 C 83.601562 42.226562 83.675781 42.425781 83.816406 42.511719 C 84.578125 42.964844 85.359375 43.390625 86.109375 43.8125 C 85.195312 44.179688 84.277344 44.546875 83.21875 44.972656 C 82.964844 43.851562 82.742188 42.863281 82.492188 41.757812 C 82.921875 41.960938 83.183594 42.085938 83.476562 42.148438 C 83.503906 42.085938 83.496094 42.085938 83.496094 42.082031 Z M 83.496094 42.082031 " fill-opacity="1" fill-rule="nonzero"/></g></g><g clip-path="url(#bb547a9201)"><g clip-path="url(#ca495d0e03)"><path fill="#f3f3f3" d="M 87.457031 43.957031 C 87.394531 43.878906 87.363281 43.78125 87.382812 43.769531 C 88.519531 43.125 89.664062 42.488281 90.953125 41.769531 C 90.714844 42.847656 90.496094 43.820312 90.253906 44.914062 C 89.640625 44.585938 88.921875 44.886719 88.558594 44.101562 C 88.480469 43.933594 87.871094 44.011719 87.457031 43.957031 Z M 87.457031 43.957031 " fill-opacity="1" fill-rule="nonzero"/></g></g><g clip-path="url(#55585cd6e4)"><g clip-path="url(#2f57e9a026)"><path fill="#eeeeee" d="M 84.703125 47.949219 C 84.351562 47.289062 83.996094 46.628906 83.660156 45.957031 C 83.539062 45.714844 83.46875 45.449219 83.371094 45.171875 C 83.898438 45.023438 84.394531 44.882812 84.972656 44.71875 C 84.972656 45.792969 84.972656 46.804688 84.964844 47.816406 C 84.964844 47.839844 84.867188 47.863281 84.757812 47.917969 C 84.699219 47.949219 84.707031 47.945312 84.703125 47.949219 Z M 84.703125 47.949219 " fill-opacity="1" fill-rule="nonzero"/></g></g><g clip-path="url(#2d50a7229b)"><g clip-path="url(#88d2d0e40b)"><path fill="#eaeaea" d="M 88.628906 46.003906 C 88.628906 45.566406 88.628906 45.199219 88.628906 44.769531 C 89.136719 44.90625 89.582031 45.03125 90.164062 45.1875 C 89.714844 46.070312 89.285156 46.910156 88.859375 47.75 C 88.78125 47.734375 88.703125 47.714844 88.628906 47.699219 C 88.628906 47.15625 88.628906 46.617188 88.628906 46.003906 Z M 88.628906 46.003906 " fill-opacity="1" fill-rule="nonzero"/></g></g><g clip-path="url(#a8bfb2d121)"><g clip-path="url(#f3371c3142)"><path fill="#202020" d="M 85.75 34.144531 C 85.867188 34.015625 86.019531 33.902344 86.273438 33.71875 C 85.398438 33.4375 84.605469 33.179688 83.765625 32.886719 C 83.777344 32.816406 83.835938 32.785156 83.921875 32.71875 C 84.070312 32.707031 84.203125 32.714844 84.308594 32.769531 C 86.023438 33.660156 87.714844 33.457031 89.453125 32.675781 C 89.558594 32.71875 89.605469 32.757812 89.691406 32.820312 C 88.90625 33.160156 88.074219 33.472656 87.273438 33.832031 C 87.292969 33.917969 87.285156 33.960938 87.269531 34.070312 C 86.84375 34.183594 86.429688 34.230469 85.960938 34.28125 C 85.867188 34.246094 85.828125 34.207031 85.75 34.144531 Z M 85.75 34.144531 " fill-opacity="1" fill-rule="nonzero"/></g></g><g clip-path="url(#983da1ad2d)"><g clip-path="url(#7c69ce1d35)"><path fill="#efebeb" d="M 114.6875 53.558594 C 115.851562 53.496094 117.007812 53.488281 118.234375 53.488281 C 118.441406 53.941406 118.582031 54.386719 118.734375 54.886719 C 117.238281 54.886719 115.800781 54.886719 114.265625 54.886719 C 114.410156 54.441406 114.542969 54.023438 114.6875 53.558594 Z M 114.6875 53.558594 " fill-opacity="1" fill-rule="nonzero"/></g></g><g clip-path="url(#bce77dee93)"><g clip-path="url(#05c6e7cca8)"><path fill="#fffcfc" d="M 111.691406 51.664062 C 108.296875 49.703125 106.597656 46.710938 106.695312 42.839844 C 106.796875 38.753906 108.855469 35.796875 112.570312 34.105469 C 117.195312 32 122.65625 33.894531 125.128906 38.375 C 127.570312 42.792969 126.230469 48.410156 122.054688 51.234375 C 121.875 51.359375 121.664062 51.441406 121.394531 51.496094 C 121.027344 50.617188 120.734375 49.789062 120.476562 48.921875 C 122.753906 47.105469 123.855469 44.863281 123.410156 41.949219 C 122.835938 38.199219 119.046875 35.476562 115.375 36.175781 C 111.425781 36.933594 108.8125 40.382812 109.691406 44.726562 C 110.0625 46.554688 111.179688 47.898438 112.621094 49.058594 C 112.304688 49.964844 111.996094 50.8125 111.691406 51.664062 Z M 111.691406 51.664062 " fill-opacity="1" fill-rule="nonzero"/></g></g><g clip-path="url(#705cb0e33f)"><g clip-path="url(#9075565185)"><path fill="#050303" d="M 120.441406 48.957031 C 120.734375 49.789062 121.027344 50.617188 121.34375 51.503906 C 120.304688 51.96875 119.246094 52.375 118.101562 52.714844 C 117.761719 51.796875 117.496094 50.945312 117.292969 50.074219 C 118.382812 49.6875 119.410156 49.324219 120.441406 48.957031 Z M 120.441406 48.957031 " fill-opacity="1" fill-rule="nonzero"/></g></g><g clip-path="url(#989c7cbb1b)"><g clip-path="url(#f738554964)"><path fill="#050303" d="M 111.734375 51.699219 C 111.996094 50.8125 112.304688 49.964844 112.667969 49.074219 C 113.753906 49.386719 114.777344 49.738281 115.785156 50.148438 C 115.496094 51.0625 115.226562 51.925781 114.957031 52.789062 C 113.894531 52.4375 112.835938 52.085938 111.734375 51.699219 Z M 111.734375 51.699219 " fill-opacity="1" fill-rule="nonzero"/></g></g><g clip-path="url(#fc6ecbbcb1)"><g clip-path="url(#3a7561c5af)"><path fill="#fcf9f9" d="M 115.007812 52.820312 C 115.226562 51.925781 115.496094 51.0625 115.839844 50.148438 C 116.351562 50.09375 116.792969 50.09375 117.234375 50.09375 C 117.496094 50.945312 117.761719 51.796875 118.042969 52.707031 C 117.0625 52.796875 116.0625 52.824219 115.007812 52.820312 Z M 115.007812 52.820312 " fill-opacity="1" fill-rule="nonzero"/></g></g><g clip-path="url(#4d4f2fd8b7)"><g clip-path="url(#402e5f0b2b)"><path fill="#040404" d="M 88.457031 40.28125 C 87.40625 41.246094 86.285156 41.347656 85.324219 40.597656 C 84.484375 39.945312 84.226562 38.789062 84.710938 37.847656 C 85.328125 36.648438 86.746094 36.234375 87.902344 36.914062 C 89.042969 37.589844 89.292969 39.003906 88.457031 40.28125 Z M 88.457031 40.28125 " fill-opacity="1" fill-rule="nonzero"/></g></g><g clip-path="url(#32cb6ffd9f)"><g clip-path="url(#a5292bdd61)"><path fill="#040404" d="M 80.078125 39.601562 C 80.5 39.875 80.929688 40.199219 81.308594 40.566406 C 80.871094 40.285156 80.476562 39.96875 80.078125 39.601562 Z M 80.078125 39.601562 " fill-opacity="1" fill-rule="nonzero"/></g></g><g clip-path="url(#e950289217)"><g clip-path="url(#08a4c3235a)"><path fill="#040404" d="M 81.253906 40.648438 C 81.484375 40.714844 81.71875 40.835938 81.90625 41.003906 C 81.660156 40.9375 81.457031 40.816406 81.253906 40.648438 Z M 81.253906 40.648438 " fill-opacity="1" fill-rule="nonzero"/></g></g><g clip-path="url(#2427493854)"><g clip-path="url(#248ea2b8fb)"><path fill="#fb3e3e" d="M 117.292969 50.074219 C 116.792969 50.09375 116.351562 50.09375 115.855469 50.09375 C 114.777344 49.738281 113.753906 49.386719 112.679688 49.015625 C 111.179688 47.898438 110.0625 46.554688 109.691406 44.726562 C 108.8125 40.382812 111.425781 36.933594 115.375 36.175781 C 119.046875 35.476562 122.835938 38.199219 123.410156 41.949219 C 123.855469 44.863281 122.753906 47.105469 120.476562 48.921875 C 119.410156 49.324219 118.382812 49.6875 117.292969 50.074219 M 117.210938 49.632812 C 118.347656 49.535156 119.378906 49.164062 120.371094 48.40625 C 122.578125 46.796875 123.542969 44.097656 122.855469 41.457031 C 121.933594 37.921875 118.449219 35.863281 114.859375 36.734375 C 111.457031 37.558594 109.304688 41.023438 110.089844 44.507812 C 110.46875 46.1875 111.300781 47.605469 112.902344 48.582031 C 113.832031 49.21875 114.828125 49.648438 116.089844 49.648438 C 116.421875 49.636719 116.753906 49.621094 117.210938 49.632812 Z M 117.210938 49.632812 " fill-opacity="1" fill-rule="nonzero"/></g></g><g clip-path="url(#a4e3d3efb4)"><g clip-path="url(#528f68ca5a)"><path fill="#fffcfc" d="M 112.851562 48.5 C 111.300781 47.605469 110.46875 46.1875 110.089844 44.507812 C 109.304688 41.023438 111.457031 37.558594 114.859375 36.734375 C 118.449219 35.863281 121.933594 37.921875 122.855469 41.457031 C 123.542969 44.097656 122.578125 46.796875 120.304688 48.363281 C 119.980469 47.613281 119.726562 46.902344 119.503906 46.152344 C 119.582031 46.035156 119.628906 45.957031 119.726562 45.855469 C 121.222656 44.066406 121.058594 41.476562 119.394531 39.953125 C 117.761719 38.457031 115.03125 38.507812 113.484375 40.0625 C 111.886719 41.671875 111.808594 44.1875 113.328125 45.921875 C 113.441406 46.09375 113.53125 46.222656 113.589844 46.410156 C 113.324219 47.144531 113.085938 47.820312 112.851562 48.5 Z M 112.851562 48.5 " fill-opacity="1" fill-rule="nonzero"/></g></g><g clip-path="url(#092b9d50a0)"><g clip-path="url(#63f39363b4)"><path fill="#050303" d="M 112.878906 48.539062 C 113.085938 47.820312 113.324219 47.144531 113.609375 46.417969 C 113.691406 46.34375 113.730469 46.324219 113.785156 46.351562 C 113.828125 46.421875 113.867188 46.445312 113.945312 46.496094 C 115.617188 47.640625 117.476562 47.65625 118.910156 46.578125 C 118.933594 46.570312 118.964844 46.53125 119.003906 46.515625 C 119.101562 46.4375 119.15625 46.378906 119.25 46.308594 C 119.351562 46.261719 119.414062 46.226562 119.472656 46.191406 C 119.726562 46.902344 119.980469 47.613281 120.253906 48.382812 C 119.378906 49.164062 118.347656 49.535156 117.136719 49.5625 C 116.902344 49.011719 116.742188 48.527344 116.527344 47.863281 C 116.316406 48.542969 116.148438 49.070312 115.984375 49.601562 C 114.828125 49.648438 113.832031 49.21875 112.878906 48.539062 Z M 112.878906 48.539062 " fill-opacity="1" fill-rule="nonzero"/></g></g><g clip-path="url(#a53169a61d)"><g clip-path="url(#5342e63d9b)"><path fill="#efebeb" d="M 116.039062 49.625 C 116.148438 49.070312 116.316406 48.542969 116.527344 47.863281 C 116.742188 48.527344 116.902344 49.011719 117.070312 49.554688 C 116.753906 49.621094 116.421875 49.636719 116.039062 49.625 Z M 116.039062 49.625 " fill-opacity="1" fill-rule="nonzero"/></g></g><g clip-path="url(#725b4ab2d0)"><g clip-path="url(#d0e6215f7d)"><path fill="#fe4b4b" d="M 113.308594 45.875 C 111.808594 44.1875 111.886719 41.671875 113.484375 40.0625 C 115.03125 38.507812 117.761719 38.457031 119.394531 39.953125 C 121.058594 41.476562 121.222656 44.066406 119.6875 45.816406 C 119.578125 45.78125 119.550781 45.757812 119.558594 45.695312 C 120.765625 43.96875 120.800781 42.207031 119.6875 40.71875 C 118.625 39.292969 116.851562 38.753906 115.140625 39.363281 C 112.507812 40.296875 111.691406 43.542969 113.425781 45.761719 C 113.359375 45.824219 113.335938 45.851562 113.308594 45.875 Z M 113.308594 45.875 " fill-opacity="1" fill-rule="nonzero"/></g></g><g clip-path="url(#8baa32e69d)"><g clip-path="url(#0d38525ec5)"><path fill="#fe4b4b" d="M 113.773438 46.316406 C 113.730469 46.324219 113.691406 46.34375 113.640625 46.363281 C 113.53125 46.222656 113.441406 46.09375 113.328125 45.921875 C 113.335938 45.851562 113.359375 45.824219 113.460938 45.789062 C 113.609375 45.824219 113.683594 45.867188 113.777344 45.949219 C 113.832031 46.046875 113.867188 46.117188 113.871094 46.214844 C 113.816406 46.273438 113.792969 46.292969 113.773438 46.316406 Z M 113.773438 46.316406 " fill-opacity="1" fill-rule="nonzero"/></g></g><g clip-path="url(#7063dc1169)"><g clip-path="url(#dd9fe9e931)"><path fill="#fe4b4b" d="M 119.503906 46.152344 C 119.414062 46.226562 119.351562 46.261719 119.21875 46.277344 C 119.128906 46.234375 119.109375 46.210938 119.113281 46.152344 C 119.214844 46.019531 119.289062 45.921875 119.394531 45.816406 C 119.457031 45.78125 119.492188 45.757812 119.527344 45.734375 C 119.550781 45.757812 119.578125 45.78125 119.640625 45.84375 C 119.628906 45.957031 119.582031 46.035156 119.503906 46.152344 Z M 119.503906 46.152344 " fill-opacity="1" fill-rule="nonzero"/></g></g><g clip-path="url(#6d17e68364)"><g clip-path="url(#b99fd1015f)"><path fill="#d52929" d="M 118.886719 46.582031 C 117.476562 47.65625 115.617188 47.640625 113.976562 46.480469 C 114.023438 46.398438 114.054688 46.367188 114.128906 46.339844 C 115.683594 47.355469 117.210938 47.261719 118.769531 46.484375 C 118.8125 46.542969 118.847656 46.566406 118.886719 46.582031 Z M 118.886719 46.582031 " fill-opacity="1" fill-rule="nonzero"/></g></g><g clip-path="url(#c9ea575d0f)"><g clip-path="url(#b5419b53c3)"><path fill="#fe4b4b" d="M 119.183594 46.285156 C 119.15625 46.378906 119.101562 46.4375 118.980469 46.480469 C 118.898438 46.445312 118.878906 46.425781 118.878906 46.371094 C 118.957031 46.285156 119.023438 46.238281 119.085938 46.191406 C 119.109375 46.210938 119.128906 46.234375 119.183594 46.285156 Z M 119.183594 46.285156 " fill-opacity="1" fill-rule="nonzero"/></g></g><g clip-path="url(#5cdd565ece)"><g clip-path="url(#b9cbfde8f0)"><path fill="#fe4b4b" d="M 114.078125 46.320312 C 114.054688 46.367188 114.023438 46.398438 113.949219 46.4375 C 113.867188 46.445312 113.828125 46.421875 113.785156 46.351562 C 113.792969 46.292969 113.816406 46.273438 113.902344 46.234375 C 114.007812 46.253906 114.042969 46.289062 114.078125 46.320312 Z M 114.078125 46.320312 " fill-opacity="1" fill-rule="nonzero"/></g></g><g clip-path="url(#2da148871a)"><g clip-path="url(#d81443dd4b)"><path fill="#fe4b4b" d="M 118.910156 46.578125 C 118.847656 46.566406 118.8125 46.542969 118.792969 46.460938 C 118.800781 46.414062 118.859375 46.40625 118.859375 46.40625 C 118.878906 46.425781 118.898438 46.445312 118.941406 46.5 C 118.964844 46.53125 118.933594 46.570312 118.910156 46.578125 Z M 118.910156 46.578125 " fill-opacity="1" fill-rule="nonzero"/></g></g><g clip-path="url(#4128d481ce)"><g clip-path="url(#227ab977a2)"><path fill="#fdfbfb" d="M 119.558594 45.695312 C 119.492188 45.757812 119.457031 45.78125 119.375 45.765625 C 119.09375 45.152344 119.007812 44.367188 118.585938 44.082031 C 118.152344 43.792969 117.390625 44 116.769531 43.988281 C 116.671875 43.984375 116.570312 43.984375 116.472656 43.988281 C 115.804688 44.007812 114.96875 43.792969 114.515625 44.113281 C 114.066406 44.433594 113.996094 45.292969 113.757812 45.914062 C 113.683594 45.867188 113.609375 45.824219 113.496094 45.75 C 111.691406 43.542969 112.507812 40.296875 115.140625 39.363281 C 116.851562 38.753906 118.625 39.292969 119.6875 40.71875 C 120.800781 42.207031 120.765625 43.96875 119.558594 45.695312 Z M 119.558594 45.695312 " fill-opacity="1" fill-rule="nonzero"/></g></g><g clip-path="url(#428f1f8b27)"><g clip-path="url(#f7f34858cc)"><path fill="#030202" d="M 113.777344 45.949219 C 113.996094 45.292969 114.066406 44.433594 114.515625 44.113281 C 114.96875 43.792969 115.804688 44.007812 116.472656 43.988281 C 116.570312 43.984375 116.671875 43.984375 116.769531 43.988281 C 117.390625 44 118.152344 43.792969 118.585938 44.082031 C 119.007812 44.367188 119.09375 45.152344 119.34375 45.769531 C 119.289062 45.921875 119.214844 46.019531 119.113281 46.152344 C 119.023438 46.238281 118.957031 46.285156 118.878906 46.371094 C 118.859375 46.40625 118.800781 46.414062 118.777344 46.433594 C 117.210938 47.261719 115.683594 47.355469 114.128906 46.339844 C 114.042969 46.289062 114.007812 46.253906 113.9375 46.199219 C 113.867188 46.117188 113.832031 46.046875 113.777344 45.949219 Z M 113.777344 45.949219 " fill-opacity="1" fill-rule="nonzero"/></g></g><g fill="#000000" fill-opacity="1"><g transform="translate(161.083444, 52.046991)"><g><path d="M 1.25 -16.15625 L 3.515625 -16.15625 L 3.515625 -9.171875 L 7.65625 -9.171875 L 7.65625 -16.15625 L 9.921875 -16.15625 L 9.921875 0 L 7.65625 0 L 7.65625 -7.5625 L 3.515625 -7.5625 L 3.515625 0 L 1.25 0 Z M 1.25 -16.15625 "/></g></g></g><g fill="#000000" fill-opacity="1"><g transform="translate(172.273897, 52.046991)"><g><path d="M 1.21875 -15.484375 L 3.359375 -15.484375 L 3.359375 -13.25 L 1.21875 -13.25 Z M 1.21875 -11.53125 L 3.359375 -11.53125 L 3.359375 0 L 1.21875 0 Z M 1.21875 -11.53125 "/></g></g></g><g fill="#000000" fill-opacity="1"><g transform="translate(176.841832, 52.046991)"><g><path d="M 1.140625 -11.53125 L 3.265625 -11.53125 L 3.265625 -9.890625 C 3.671875 -10.546875 4.082031 -11.003906 4.5 -11.265625 C 4.914062 -11.535156 5.359375 -11.671875 5.828125 -11.671875 C 5.941406 -11.671875 6.054688 -11.664062 6.171875 -11.65625 L 6.171875 -9.296875 C 5.742188 -9.453125 5.347656 -9.53125 4.984375 -9.53125 C 4.640625 -9.53125 4.332031 -9.445312 4.0625 -9.28125 C 3.789062 -9.113281 3.523438 -8.828125 3.265625 -8.421875 L 3.265625 0 L 1.140625 0 Z M 1.140625 -11.53125 "/></g></g></g><g fill="#000000" fill-opacity="1"><g transform="translate(183.244926, 52.046991)"><g><path d="M 1.21875 -15.484375 L 3.359375 -15.484375 L 3.359375 -13.25 L 1.21875 -13.25 Z M 1.21875 -11.53125 L 3.359375 -11.53125 L 3.359375 0 L 1.21875 0 Z M 1.21875 -11.53125 "/></g></g></g><g fill="#000000" fill-opacity="1"><g transform="translate(187.81286, 52.046991)"><g><path d="M 1.078125 -11.53125 L 3.21875 -11.53125 L 3.21875 -10.390625 C 4.132812 -11.253906 5.070312 -11.6875 6.03125 -11.6875 C 6.65625 -11.6875 7.097656 -11.457031 7.359375 -11 C 7.628906 -10.550781 7.765625 -10 7.765625 -9.34375 L 7.765625 0 L 5.625 0 L 5.625 -8.71875 C 5.625 -9.15625 5.554688 -9.476562 5.421875 -9.6875 C 5.296875 -9.90625 5.054688 -10.015625 4.703125 -10.015625 C 4.285156 -10.015625 3.789062 -9.773438 3.21875 -9.296875 L 3.21875 0 L 1.078125 0 Z M 1.078125 -11.53125 "/></g></g></g><g fill="#000000" fill-opacity="1"><g transform="translate(196.569736, 52.046991)"><g><path d="M 4.078125 3.578125 C 2.953125 3.578125 2.054688 3.398438 1.390625 3.046875 C 0.734375 2.691406 0.40625 2.140625 0.40625 1.390625 C 0.40625 0.890625 0.5625 0.453125 0.875 0.078125 C 1.1875 -0.296875 1.582031 -0.59375 2.0625 -0.8125 C 1.695312 -0.925781 1.414062 -1.09375 1.21875 -1.3125 C 1.03125 -1.539062 0.9375 -1.789062 0.9375 -2.0625 C 0.9375 -2.457031 1.035156 -2.800781 1.234375 -3.09375 C 1.429688 -3.382812 1.757812 -3.738281 2.21875 -4.15625 C 1.757812 -4.5 1.421875 -4.929688 1.203125 -5.453125 C 0.984375 -5.984375 0.875 -6.691406 0.875 -7.578125 C 0.875 -8.921875 1.148438 -9.941406 1.703125 -10.640625 C 2.253906 -11.335938 3.0625 -11.6875 4.125 -11.6875 C 4.738281 -11.6875 5.238281 -11.578125 5.625 -11.359375 C 6.007812 -11.148438 6.300781 -10.835938 6.5 -10.421875 C 6.59375 -10.566406 6.789062 -10.757812 7.09375 -11 C 7.394531 -11.25 7.71875 -11.453125 8.0625 -11.609375 L 8.375 -11.75 L 8.921875 -10.375 C 8.648438 -10.320312 8.28125 -10.207031 7.8125 -10.03125 C 7.34375 -9.863281 7.0625 -9.734375 6.96875 -9.640625 C 7.0625 -9.398438 7.144531 -9.066406 7.21875 -8.640625 C 7.289062 -8.210938 7.328125 -7.835938 7.328125 -7.515625 C 7.328125 -6.253906 7.078125 -5.273438 6.578125 -4.578125 C 6.085938 -3.878906 5.269531 -3.53125 4.125 -3.53125 C 3.769531 -3.53125 3.40625 -3.578125 3.03125 -3.671875 C 2.78125 -3.296875 2.65625 -3.003906 2.65625 -2.796875 C 2.65625 -2.648438 2.726562 -2.53125 2.875 -2.4375 C 3.03125 -2.351562 3.273438 -2.300781 3.609375 -2.28125 L 5.40625 -2.109375 C 6.3125 -2.035156 6.984375 -1.765625 7.421875 -1.296875 C 7.859375 -0.828125 8.078125 -0.160156 8.078125 0.703125 C 8.078125 2.617188 6.742188 3.578125 4.078125 3.578125 Z M 4.125 -5.03125 C 4.695312 -5.03125 5.066406 -5.226562 5.234375 -5.625 C 5.410156 -6.019531 5.5 -6.671875 5.5 -7.578125 C 5.5 -8.492188 5.410156 -9.160156 5.234375 -9.578125 C 5.066406 -10.003906 4.707031 -10.21875 4.15625 -10.21875 C 3.59375 -10.21875 3.210938 -10.003906 3.015625 -9.578125 C 2.828125 -9.160156 2.734375 -8.492188 2.734375 -7.578125 C 2.734375 -6.753906 2.828125 -6.125 3.015625 -5.6875 C 3.210938 -5.25 3.582031 -5.03125 4.125 -5.03125 Z M 4.234375 1.890625 C 4.992188 1.890625 5.550781 1.800781 5.90625 1.625 C 6.257812 1.445312 6.4375 1.160156 6.4375 0.765625 C 6.4375 0.390625 6.320312 0.113281 6.09375 -0.0625 C 5.875 -0.25 5.46875 -0.367188 4.875 -0.421875 L 3.046875 -0.578125 C 2.773438 -0.296875 2.5625 -0.0507812 2.40625 0.15625 C 2.257812 0.375 2.1875 0.609375 2.1875 0.859375 C 2.1875 1.210938 2.335938 1.472656 2.640625 1.640625 C 2.941406 1.804688 3.472656 1.890625 4.234375 1.890625 Z M 4.234375 1.890625 "/></g></g></g><g fill="#000000" fill-opacity="1"><g transform="translate(205.246829, 52.046991)"><g/></g></g><g fill="#000000" fill-opacity="1"><g transform="translate(209.814763, 52.046991)"><g><path d="M 1.25 -16.15625 L 5.265625 -16.15625 C 6.660156 -16.15625 7.675781 -15.773438 8.3125 -15.015625 C 8.945312 -14.265625 9.265625 -13.15625 9.265625 -11.6875 C 9.265625 -10.375 8.921875 -9.347656 8.234375 -8.609375 C 7.554688 -7.878906 6.570312 -7.515625 5.28125 -7.515625 L 3.515625 -7.515625 L 3.515625 0 L 1.25 0 Z M 4.546875 -9.140625 C 5.210938 -9.140625 5.726562 -9.210938 6.09375 -9.359375 C 6.457031 -9.503906 6.71875 -9.753906 6.875 -10.109375 C 7.039062 -10.472656 7.125 -10.992188 7.125 -11.671875 C 7.125 -12.492188 7.0625 -13.097656 6.9375 -13.484375 C 6.820312 -13.867188 6.585938 -14.140625 6.234375 -14.296875 C 5.878906 -14.460938 5.320312 -14.546875 4.5625 -14.546875 L 3.515625 -14.546875 L 3.515625 -9.140625 Z M 4.546875 -9.140625 "/></g></g></g><g fill="#000000" fill-opacity="1"><g transform="translate(219.2698, 52.046991)"><g><path d="M 4.25 0.15625 C 3.03125 0.15625 2.160156 -0.203125 1.640625 -0.921875 C 1.128906 -1.648438 0.875 -2.707031 0.875 -4.09375 L 0.875 -7.4375 C 0.875 -8.820312 1.128906 -9.875 1.640625 -10.59375 C 2.160156 -11.320312 3.03125 -11.6875 4.25 -11.6875 C 5.457031 -11.6875 6.316406 -11.320312 6.828125 -10.59375 C 7.347656 -9.875 7.609375 -8.820312 7.609375 -7.4375 L 7.609375 -4.09375 C 7.609375 -2.707031 7.347656 -1.648438 6.828125 -0.921875 C 6.316406 -0.203125 5.457031 0.15625 4.25 0.15625 Z M 4.25 -1.421875 C 4.632812 -1.421875 4.910156 -1.53125 5.078125 -1.75 C 5.253906 -1.976562 5.363281 -2.257812 5.40625 -2.59375 C 5.445312 -2.925781 5.46875 -3.378906 5.46875 -3.953125 L 5.46875 -7.5625 C 5.46875 -8.132812 5.445312 -8.585938 5.40625 -8.921875 C 5.363281 -9.265625 5.253906 -9.546875 5.078125 -9.765625 C 4.910156 -9.992188 4.632812 -10.109375 4.25 -10.109375 C 3.863281 -10.109375 3.578125 -9.992188 3.390625 -9.765625 C 3.210938 -9.546875 3.101562 -9.265625 3.0625 -8.921875 C 3.03125 -8.585938 3.015625 -8.132812 3.015625 -7.5625 L 3.015625 -3.953125 C 3.015625 -3.378906 3.03125 -2.925781 3.0625 -2.59375 C 3.101562 -2.257812 3.210938 -1.976562 3.390625 -1.75 C 3.578125 -1.53125 3.863281 -1.421875 4.25 -1.421875 Z M 4.25 -1.421875 "/></g></g></g><g fill="#000000" fill-opacity="1"><g transform="translate(227.747417, 52.046991)"><g><path d="M 3.75 0.15625 C 2.820312 0.15625 2.066406 -0.132812 1.484375 -0.71875 C 0.910156 -1.300781 0.582031 -2.085938 0.5 -3.078125 L 2.28125 -3.609375 C 2.382812 -2.867188 2.566406 -2.316406 2.828125 -1.953125 C 3.085938 -1.597656 3.457031 -1.421875 3.9375 -1.421875 C 4.300781 -1.421875 4.585938 -1.53125 4.796875 -1.75 C 5.003906 -1.96875 5.109375 -2.265625 5.109375 -2.640625 C 5.109375 -2.960938 5.035156 -3.257812 4.890625 -3.53125 C 4.742188 -3.800781 4.503906 -4.070312 4.171875 -4.34375 L 2.1875 -6.046875 C 1.738281 -6.429688 1.390625 -6.835938 1.140625 -7.265625 C 0.898438 -7.703125 0.78125 -8.234375 0.78125 -8.859375 C 0.78125 -9.753906 1.046875 -10.445312 1.578125 -10.9375 C 2.109375 -11.4375 2.832031 -11.6875 3.75 -11.6875 C 4.625 -11.6875 5.3125 -11.40625 5.8125 -10.84375 C 6.3125 -10.28125 6.601562 -9.550781 6.6875 -8.65625 L 5.25 -8.125 C 5.15625 -8.769531 5 -9.257812 4.78125 -9.59375 C 4.570312 -9.9375 4.253906 -10.109375 3.828125 -10.109375 C 3.484375 -10.109375 3.207031 -9.992188 3 -9.765625 C 2.789062 -9.546875 2.6875 -9.269531 2.6875 -8.9375 C 2.6875 -8.507812 2.878906 -8.125 3.265625 -7.78125 L 5.3125 -5.90625 C 5.820312 -5.425781 6.21875 -4.953125 6.5 -4.484375 C 6.789062 -4.023438 6.9375 -3.460938 6.9375 -2.796875 C 6.9375 -1.835938 6.648438 -1.101562 6.078125 -0.59375 C 5.515625 -0.09375 4.738281 0.15625 3.75 0.15625 Z M 3.75 0.15625 "/></g></g></g><g fill="#000000" fill-opacity="1"><g transform="translate(235.207715, 52.046991)"><g><path d="M 1.21875 -15.484375 L 3.359375 -15.484375 L 3.359375 -13.25 L 1.21875 -13.25 Z M 1.21875 -11.53125 L 3.359375 -11.53125 L 3.359375 0 L 1.21875 0 Z M 1.21875 -11.53125 "/></g></g></g><g fill="#000000" fill-opacity="1"><g transform="translate(239.775649, 52.046991)"><g><path d="M 4.15625 0.15625 C 2.488281 0.15625 1.65625 -0.757812 1.65625 -2.59375 L 1.65625 -10.109375 L 0.4375 -10.109375 L 0.4375 -11.53125 L 1.65625 -11.53125 L 1.65625 -14.90625 L 3.796875 -14.90625 L 3.796875 -11.53125 L 5.640625 -11.53125 L 5.640625 -10.109375 L 3.796875 -10.109375 L 3.796875 -2.734375 C 3.796875 -2.265625 3.867188 -1.9375 4.015625 -1.75 C 4.160156 -1.5625 4.4375 -1.46875 4.84375 -1.46875 C 5.113281 -1.46875 5.375 -1.488281 5.625 -1.53125 L 5.625 0.046875 C 5.09375 0.117188 4.601562 0.15625 4.15625 0.15625 Z M 4.15625 0.15625 "/></g></g></g><g fill="#000000" fill-opacity="1"><g transform="translate(245.919433, 52.046991)"><g><path d="M 1.21875 -15.484375 L 3.359375 -15.484375 L 3.359375 -13.25 L 1.21875 -13.25 Z M 1.21875 -11.53125 L 3.359375 -11.53125 L 3.359375 0 L 1.21875 0 Z M 1.21875 -11.53125 "/></g></g></g><g fill="#000000" fill-opacity="1"><g transform="translate(250.487367, 52.046991)"><g><path d="M 4.25 0.15625 C 3.03125 0.15625 2.160156 -0.203125 1.640625 -0.921875 C 1.128906 -1.648438 0.875 -2.707031 0.875 -4.09375 L 0.875 -7.4375 C 0.875 -8.820312 1.128906 -9.875 1.640625 -10.59375 C 2.160156 -11.320312 3.03125 -11.6875 4.25 -11.6875 C 5.457031 -11.6875 6.316406 -11.320312 6.828125 -10.59375 C 7.347656 -9.875 7.609375 -8.820312 7.609375 -7.4375 L 7.609375 -4.09375 C 7.609375 -2.707031 7.347656 -1.648438 6.828125 -0.921875 C 6.316406 -0.203125 5.457031 0.15625 4.25 0.15625 Z M 4.25 -1.421875 C 4.632812 -1.421875 4.910156 -1.53125 5.078125 -1.75 C 5.253906 -1.976562 5.363281 -2.257812 5.40625 -2.59375 C 5.445312 -2.925781 5.46875 -3.378906 5.46875 -3.953125 L 5.46875 -7.5625 C 5.46875 -8.132812 5.445312 -8.585938 5.40625 -8.921875 C 5.363281 -9.265625 5.253906 -9.546875 5.078125 -9.765625 C 4.910156 -9.992188 4.632812 -10.109375 4.25 -10.109375 C 3.863281 -10.109375 3.578125 -9.992188 3.390625 -9.765625 C 3.210938 -9.546875 3.101562 -9.265625 3.0625 -8.921875 C 3.03125 -8.585938 3.015625 -8.132812 3.015625 -7.5625 L 3.015625 -3.953125 C 3.015625 -3.378906 3.03125 -2.925781 3.0625 -2.59375 C 3.101562 -2.257812 3.210938 -1.976562 3.390625 -1.75 C 3.578125 -1.53125 3.863281 -1.421875 4.25 -1.421875 Z M 4.25 -1.421875 "/></g></g></g><g fill="#000000" fill-opacity="1"><g transform="translate(258.964983, 52.046991)"><g><path d="M 1.078125 -11.53125 L 3.21875 -11.53125 L 3.21875 -10.390625 C 4.132812 -11.253906 5.070312 -11.6875 6.03125 -11.6875 C 6.65625 -11.6875 7.097656 -11.457031 7.359375 -11 C 7.628906 -10.550781 7.765625 -10 7.765625 -9.34375 L 7.765625 0 L 5.625 0 L 5.625 -8.71875 C 5.625 -9.15625 5.554688 -9.476562 5.421875 -9.6875 C 5.296875 -9.90625 5.054688 -10.015625 4.703125 -10.015625 C 4.285156 -10.015625 3.789062 -9.773438 3.21875 -9.296875 L 3.21875 0 L 1.078125 0 Z M 1.078125 -11.53125 "/></g></g></g><g fill="#000000" fill-opacity="1"><g transform="translate(267.721859, 52.046991)"><g><path d="M 3.75 0.15625 C 2.820312 0.15625 2.066406 -0.132812 1.484375 -0.71875 C 0.910156 -1.300781 0.582031 -2.085938 0.5 -3.078125 L 2.28125 -3.609375 C 2.382812 -2.867188 2.566406 -2.316406 2.828125 -1.953125 C 3.085938 -1.597656 3.457031 -1.421875 3.9375 -1.421875 C 4.300781 -1.421875 4.585938 -1.53125 4.796875 -1.75 C 5.003906 -1.96875 5.109375 -2.265625 5.109375 -2.640625 C 5.109375 -2.960938 5.035156 -3.257812 4.890625 -3.53125 C 4.742188 -3.800781 4.503906 -4.070312 4.171875 -4.34375 L 2.1875 -6.046875 C 1.738281 -6.429688 1.390625 -6.835938 1.140625 -7.265625 C 0.898438 -7.703125 0.78125 -8.234375 0.78125 -8.859375 C 0.78125 -9.753906 1.046875 -10.445312 1.578125 -10.9375 C 2.109375 -11.4375 2.832031 -11.6875 3.75 -11.6875 C 4.625 -11.6875 5.3125 -11.40625 5.8125 -10.84375 C 6.3125 -10.28125 6.601562 -9.550781 6.6875 -8.65625 L 5.25 -8.125 C 5.15625 -8.769531 5 -9.257812 4.78125 -9.59375 C 4.570312 -9.9375 4.253906 -10.109375 3.828125 -10.109375 C 3.484375 -10.109375 3.207031 -9.992188 3 -9.765625 C 2.789062 -9.546875 2.6875 -9.269531 2.6875 -8.9375 C 2.6875 -8.507812 2.878906 -8.125 3.265625 -7.78125 L 5.3125 -5.90625 C 5.820312 -5.425781 6.21875 -4.953125 6.5 -4.484375 C 6.789062 -4.023438 6.9375 -3.460938 6.9375 -2.796875 C 6.9375 -1.835938 6.648438 -1.101562 6.078125 -0.59375 C 5.515625 -0.09375 4.738281 0.15625 3.75 0.15625 Z M 3.75 0.15625 "/></g></g></g><g clip-path="url(#8e6da9ef22)"><g clip-path="url(#10151cca80)"><path fill="#e6f4fd" d="M 57.242188 359.105469 L 209.875 359.105469 L 209.875 417.078125 L 57.242188 417.078125 Z M 57.242188 359.105469 " fill-opacity="1" fill-rule="nonzero"/></g></g><g clip-path="url(#5273838979)"><g clip-path="url(#0b912299a4)"><path fill="#e6f4fd" d="M 309.242188 359.105469 L 461.875 359.105469 L 461.875 417.078125 L 309.242188 417.078125 Z M 309.242188 359.105469 " fill-opacity="1" fill-rule="nonzero"/></g></g><g clip-path="url(#93e992c058)"><g clip-path="url(#57cb9989ea)"><path fill="#e6f4fd" d="M 561.496094 359.105469 L 714.125 359.105469 L 714.125 417.078125 L 561.496094 417.078125 Z M 561.496094 359.105469 " fill-opacity="1" fill-rule="nonzero"/></g></g><g clip-path="url(#704bacf7d4)"><g clip-path="url(#cbc1afc304)"><path fill="#e6f4fd" d="M 813.75 359.105469 L 966.378906 359.105469 L 966.378906 417.078125 L 813.75 417.078125 Z M 813.75 359.105469 " fill-opacity="1" fill-rule="nonzero"/></g></g><g clip-path="url(#b66df5453b)"><g clip-path="url(#686ae1792e)"><path fill="#e6f4fd" d="M 57.570312 460.316406 L 210.203125 460.316406 L 210.203125 518.289062 L 57.570312 518.289062 Z M 57.570312 460.316406 " fill-opacity="1" fill-rule="nonzero"/></g></g><g clip-path="url(#9ba56beb5a)"><g clip-path="url(#031621244c)"><path fill="#e6f4fd" d="M 309.242188 460.316406 L 461.875 460.316406 L 461.875 518.289062 L 309.242188 518.289062 Z M 309.242188 460.316406 " fill-opacity="1" fill-rule="nonzero"/></g></g><g clip-path="url(#0dd27f5327)"><g clip-path="url(#3911cde0bd)"><path fill="#e6f4fd" d="M 560.914062 460.316406 L 713.546875 460.316406 L 713.546875 518.289062 L 560.914062 518.289062 Z M 560.914062 460.316406 " fill-opacity="1" fill-rule="nonzero"/></g></g></svg>